<?xml version="1.0" encoding="UTF-8"?>
<svg id="Layer_2" data-name="Layer 2" xmlns="http://www.w3.org/2000/svg" viewBox="0 0 3146.83 1573.81">
  <defs>
    <style>
      .cls-1 {
        fill: #3a3a3a;
      }

      .cls-2 {
        fill: #565656;
      }
    </style>
  </defs>
  <g id="Layer_1-2" data-name="Layer 1">
    <rect class="cls-2" width="3146.82" height="1573.41"/>
    <g>
      <path class="cls-1" d="M469.75,1341.57c-3.36,0-6.5.93-9.2,2.53l-65.73-65.73H0v9.05h391.08l63.08,63.08c-1.6,2.7-2.53,5.84-2.53,9.2,0,10.01,8.12,18.13,18.13,18.13s18.13-8.12,18.13-18.13-8.12-18.13-18.13-18.13Z"/>
      <path class="cls-1" d="M319.25,1365.71c-8.45,0-15.52,5.78-17.53,13.6H0v9.05h301.72c2.01,7.82,9.09,13.6,17.53,13.6,10.01,0,18.13-8.12,18.13-18.13s-8.12-18.13-18.13-18.13Z"/>
      <path class="cls-1" d="M963.88,1129.56c0-10.01-8.12-18.13-18.13-18.13s-18.13,8.12-18.13,18.13,8.12,18.13,18.13,18.13c3.36,0,6.5-.93,9.2-2.53l101.2,101.2v42.57h-92.16l-124.02-124.02c1.6-2.7,2.53-5.84,2.53-9.2,0-10.01-8.12-18.13-18.13-18.13s-18.13,8.12-18.13,18.13,8.12,18.13,18.13,18.13c3.36,0,6.5-.93,9.2-2.53l126.67,126.67h95.9v18.79h-120.27l-178.12-178.12c1.6-2.7,2.53-5.84,2.53-9.2,0-10.01-8.12-18.13-18.13-18.13s-18.13,8.12-18.13,18.13,8.12,18.13,18.13,18.13c3.36,0,6.5-.93,9.2-2.53l107.48,107.48h-128.26l-125.79-125.79c1.88-2.86,2.98-6.27,2.98-9.94,0-10.01-8.12-18.13-18.13-18.13s-18.13,8.12-18.13,18.13,8.12,18.13,18.13,18.13c3.05,0,5.92-.76,8.45-2.09l128.74,128.74h141.06l64.24,64.24h124.02v51.48h-452.66c-2.01-7.82-9.09-13.6-17.53-13.6-10.01,0-18.13,8.12-18.13,18.13s8.12,18.13,18.13,18.13c8.45,0,15.52-5.78,17.53-13.6h452.66v187.47h9.05v-331.2l-103.85-103.85c1.6-2.7,2.53-5.84,2.53-9.2Z"/>
      <path class="cls-1" d="M1352.33,1148.07c10.01,0,18.13-8.12,18.13-18.13s-8.12-18.13-18.13-18.13-18.13,8.12-18.13,18.13c0,3.36.93,6.5,2.53,9.2l-180.27,180.27v254.39h9.05v-250.65l177.62-177.62c2.7,1.6,5.84,2.53,9.2,2.53Z"/>
      <path class="cls-1" d="M1211.72,1206.82c10.01,0,18.13-8.12,18.13-18.13s-8.11-18.13-18.13-18.13c-8.45,0-15.52,5.78-17.53,13.6h-99.28l-129.73-129.73h44.7l79.65,79.65h25.13v25.95h60.94v-60.94h-60.94v25.94h-21.39l-70.6-70.6h122.07l70.63-70.63c2.7,1.6,5.84,2.53,9.2,2.53,10.01,0,18.13-8.12,18.13-18.13s-8.12-18.13-18.13-18.13-18.13,8.12-18.13,18.13c0,3.36.93,6.5,2.53,9.2l-67.98,67.98h-197.58l52.55-52.55h80.28v25.95h60.94v-60.94h-60.94v25.95h-84.03l-61.6,61.6h-30.89l115.7-115.7c2.7,1.6,5.84,2.53,9.2,2.53,10.01,0,18.13-8.12,18.13-18.13s-8.12-18.13-18.13-18.13-18.13,8.12-18.13,18.13c0,3.36.93,6.5,2.53,9.2l-122.1,122.1h-350.89l-121.19,121.19h-51.92l157.06-157.06h104.36v15.31h39.67v-15.31h26.6v15.31h39.67v-15.31h20.65v15.31h39.67v-39.67h-39.67v15.31h-20.65v-15.31h-39.67v15.31h-26.6v-15.31h-39.67v15.31h-108.11l-166.11,166.11h-53.27l193.99-193.99h361.69l54.13-54.13c2.7,1.6,5.84,2.53,9.2,2.53,10.01,0,18.13-8.12,18.13-18.13s-8.12-18.13-18.13-18.13-18.13,8.12-18.13,18.13c0,3.36.93,6.5,2.53,9.2l-51.48,51.48h-258.53l-115.02-115.02h-20v-25.95h-60.94v60.94h60.94v-25.95h16.25l105.98,105.98h-90.37l-276.42,276.42H0v9.05h297.18l.27.27.27-.27h117.42l76.8,76.8h267.49c2.01,7.82,9.09,13.6,17.53,13.6,10.01,0,18.13-8.12,18.13-18.13s-8.12-18.13-18.13-18.13c-8.45,0-15.52,5.78-17.53,13.6h-263.74l-76.8-76.8h-112.12l37.09-37.09h176.9v12.98h-25.95v60.94h60.94v-60.94h-25.95v-22.02h-189.69l-46.14,46.14h-70.49l64.34-64.33h252.02l61.49,61.49c-1.6,2.7-2.53,5.84-2.53,9.2,0,10.01,8.12,18.13,18.13,18.13s18.13-8.12,18.13-18.13-8.12-18.13-18.13-18.13c-3.36,0-6.5.93-9.2,2.53l-64.14-64.14h-115.94l112.15-112.15h133.83v81.76l51.33,51.33-10.83,10.83,28.05,28.05,28.05-28.05-28.05-28.05-10.83,10.83-48.68-48.68v-78.01h102.14l179.85,179.85c-1.6,2.7-2.53,5.84-2.53,9.2,0,10.01,8.12,18.13,18.13,18.13s18.13-8.12,18.13-18.13-8.12-18.13-18.13-18.13c-3.36,0-6.5.93-9.2,2.53l-173.45-173.45h154.77l138.78,138.78h103.03c2.01,7.82,9.09,13.6,17.53,13.6Z"/>
      <path class="cls-1" d="M1162.93,1261.04c0-10.01-8.12-18.13-18.13-18.13s-18.13,8.12-18.13,18.13c0,3.44.98,6.65,2.65,9.39l-25.61,25.61v277.77h9.05v-274.02l23.03-23.03c2.66,1.53,5.73,2.41,9.01,2.41,10.01,0,18.13-8.12,18.13-18.13Z"/>
      <path class="cls-1" d="M1440.33,1148.07c10.01,0,18.13-8.12,18.13-18.13s-8.12-18.13-18.13-18.13-18.13,8.12-18.13,18.13c0,3.36.93,6.5,2.53,9.2l-180.27,180.27v254.39h9.05v-250.65l177.62-177.62c2.7,1.6,5.84,2.53,9.2,2.53Z"/>
      <path class="cls-1" d="M1450.68,1336.24c-10.01,0-18.13,8.12-18.13,18.13s8.12,18.13,18.13,18.13,18.13-8.12,18.13-18.13c0-3.36-.93-6.5-2.53-9.2l107.07-107.07v-12.79l-113.47,113.47c-2.7-1.6-5.84-2.53-9.2-2.53Z"/>
      <path class="cls-1" d="M345.26,274.73c3.36,0,6.5-.93,9.2-2.53l56.82,56.82v83.75l-146.57-146.57c1.6-2.7,2.53-5.84,2.53-9.2,0-10.01-8.12-18.13-18.13-18.13s-18.13,8.12-18.13,18.13,8.12,18.13,18.13,18.13c3.36,0,6.5-.93,9.2-2.53l152.97,152.97v32.4h139.22v35.64h-102.23L78.97,862.91c-2.7-1.6-5.84-2.53-9.2-2.53-10.01,0-18.13,8.12-18.13,18.13s8.12,18.13,18.13,18.13,18.13-8.12,18.13-18.13c0-3.36-.93-6.5-2.53-9.2l366.65-366.65h98.49v50.48l-278.77,278.77c-6.25-4.88-14.08-7.81-22.62-7.81-20.34,0-36.83,16.49-36.83,36.83s16.49,36.83,36.83,36.83,36.83-16.49,36.83-36.83c0-8.54-2.93-16.38-7.81-22.62l272.37-272.37v58.53l-200.34,200.34c-2.7-1.6-5.84-2.53-9.2-2.53-10.01,0-18.13,8.12-18.13,18.13s8.12,18.13,18.13,18.13,18.13-8.12,18.13-18.13c0-3.36-.93-6.5-2.53-9.2l60.16-60.16,138.66,138.66h252.43c2.01,7.82,9.09,13.6,17.53,13.6,10.01,0,18.13-8.12,18.13-18.13s-8.12-18.13-18.13-18.13c-8.45,0-15.52,5.78-17.53,13.6h-248.68l-136.01-136.01,33.15-33.15,115.82,115.82h163.04c2.01,7.82,9.09,13.6,17.53,13.6,10.01,0,18.13-8.12,18.13-18.13s-8.12-18.13-18.13-18.13c-8.45,0-15.52,5.78-17.53,13.6h-39.97v-39.53h189.33l27.16,27.16c-1.53,2.66-2.42,5.73-2.42,9.02,0,10.01,8.12,18.13,18.13,18.13s18.13-8.12,18.13-18.13-8.12-18.13-18.13-18.13c-3.44,0-6.64.97-9.38,2.64l-29.74-29.74h-202.12v48.58h-30.2v-82.6h306.11l143.72,143.72c-1.6,2.7-2.53,5.84-2.53,9.2,0,10.01,8.12,18.13,18.13,18.13s18.13-8.12,18.13-18.13-8.12-18.13-18.13-18.13c-3.36,0-6.5.93-9.2,2.53l-26.95-26.95v-236.16h25.94v-60.94h-60.94v60.94h25.95v227.11l-110.38-110.38h-177.2l-128.77-128.77c1.76-2.8,2.8-6.1,2.8-9.65,0-10.01-8.12-18.13-18.13-18.13s-18.13,8.12-18.13,18.13,8.12,18.13,18.13,18.13c3.18,0,6.16-.82,8.75-2.26l122.55,122.55h-128.91v91.65h-71.02l-113.16-113.16,96.9-96.9V241.95h29.8v456.3h-25.95v25.73h25.95v14.32h-25.95v25.73h25.95v14.32h-25.95v25.73h60.94v-25.73h-25.95v-14.32h25.95v-25.73h-25.95v-14.32h25.95v-25.73h-25.95v-199.36l207.49,207.48h118.45v25.95h60.94v-60.94h-60.94v25.95h-114.7l-211.23-211.23v-244.14h32.12v205.62l187.96,187.96c-1.6,2.7-2.53,5.84-2.53,9.2,0,10.01,8.12,18.13,18.13,18.13s18.13-8.12,18.13-18.13-8.12-18.13-18.13-18.13c-3.36,0-6.5.93-9.2,2.53l-185.31-185.31V0h-9.05v232.9h-80.02v216.02h-130.17v-123.64l-59.47-59.47c1.6-2.7,2.53-5.84,2.53-9.2,0-10.01-8.12-18.13-18.13-18.13s-18.13,8.12-18.13,18.13,8.12,18.13,18.13,18.13Z"/>
      <path class="cls-1" d="M68.34,453.44c10.01,0,18.13-8.12,18.13-18.13,0-8.45-5.78-15.52-13.6-17.53V0h-9.05v417.78c-7.82,2.01-13.6,9.09-13.6,17.53,0,10.01,8.12,18.13,18.13,18.13Z"/>
      <path class="cls-1" d="M852.55,626.34c0,10.01,8.12,18.13,18.13,18.13s18.13-8.12,18.13-18.13-8.12-18.13-18.13-18.13c-3.36,0-6.5.93-9.2,2.53l-185.31-185.31V0h-9.05v429.18l187.96,187.96c-1.6,2.7-2.53,5.84-2.53,9.2Z"/>
      <path class="cls-1" d="M920.5,609.66c0,10.01,8.12,18.13,18.13,18.13s18.13-8.12,18.13-18.13-8.12-18.13-18.13-18.13c-3.36,0-6.5.93-9.2,2.53l-185.31-185.31v-36.36h257.07l159.64-159.64c2.7,1.6,5.84,2.53,9.2,2.53,10.01,0,18.13-8.12,18.13-18.13s-8.12-18.13-18.13-18.13-18.13,8.12-18.13,18.13c0,3.36.93,6.5,2.53,9.2l-156.99,156.99h-253.32v-61.96h164.28c1.06,9,8.7,15.98,17.99,15.98,10.01,0,18.13-8.12,18.13-18.13s-8.12-18.13-18.13-18.13c-7.56,0-14.04,4.64-16.76,11.22h-165.51v-24.82h225.15c2.01,7.82,9.09,13.6,17.53,13.6,10.01,0,18.13-8.12,18.13-18.13s-8.12-18.13-18.13-18.13c-8.45,0-15.52,5.78-17.53,13.6h-225.15V2.62h-9.05v409.87l187.96,187.96c-1.6,2.7-2.53,5.84-2.53,9.2Z"/>
      <path class="cls-1" d="M342.8,1017.6c2.7,1.6,5.84,2.53,9.2,2.53,10.01,0,18.13-8.12,18.13-18.13s-8.12-18.13-18.13-18.13-18.13,8.12-18.13,18.13c0,3.36.93,6.5,2.53,9.2l-64.64,64.64v-147.49h127.42c2.01,7.82,9.09,13.6,17.53,13.6,10.01,0,18.13-8.12,18.13-18.13s-8.12-18.13-18.13-18.13c-8.45,0-15.52,5.78-17.53,13.6h-136.47v164.76h.82l-76.11,76.11v-200.69c7.82-2.01,13.6-9.09,13.6-17.53,0-10.01-8.12-18.13-18.13-18.13s-18.13,8.12-18.13,18.13c0,8.45,5.78,15.52,13.6,17.53v207.09h-73v-243.72l340.67-340.68c2.7,1.6,5.84,2.53,9.2,2.53,10.01,0,18.13-8.12,18.13-18.13s-8.12-18.13-18.13-18.13-18.13,8.12-18.13,18.13c0,3.36.93,6.5,2.53,9.2L96.33,919.11v247.47H0v9.05h184.77l158.03-158.03Z"/>
      <path class="cls-1" d="M0,891.13l310.05-310.05c2.7,1.6,5.84,2.53,9.2,2.53,10.01,0,18.13-8.12,18.13-18.13s-8.12-18.13-18.13-18.13-18.13,8.12-18.13,18.13c0,3.36.93,6.5,2.53,9.2L0,878.34v12.79Z"/>
      <path class="cls-1" d="M268.81,432.79c2.7,1.6,5.84,2.53,9.2,2.53,10.01,0,18.13-8.12,18.13-18.13s-8.12-18.13-18.13-18.13-18.13,8.12-18.13,18.13c0,3.36.93,6.5,2.53,9.2l-88.28,88.28H0v9.05h177.88l90.93-90.93Z"/>
      <path class="cls-1" d="M134.37,417.81c-7.76,2.05-13.49,9.1-13.49,17.51,0,10.01,8.12,18.13,18.13,18.13s18.13-8.12,18.13-18.13c0-8.48-5.84-15.59-13.71-17.56v-133.48l137.79-137.79V0h-9.05v142.74l-137.79,137.79v137.28Z"/>
      <path class="cls-1" d="M0,828.68l146.07-146.07c2.3,1.06,4.85,1.66,7.54,1.66,10.01,0,18.13-8.12,18.13-18.13s-8.12-18.13-18.13-18.13-18.13,8.12-18.13,18.13c0,4.02,1.32,7.72,3.53,10.72L0,815.88v12.79Z"/>
      <path class="cls-1" d="M480.33,381.53c-7.82,2.01-13.6,9.09-13.6,17.53,0,10.01,8.12,18.13,18.13,18.13s18.13-8.12,18.13-18.13c0-8.45-5.78-15.52-13.6-17.53v-81.02l-105.23-105.23V0h-9.05v199.02l105.23,105.23v77.28Z"/>
      <path class="cls-1" d="M1352.78,950.68c-7.82,2.01-13.6,9.09-13.6,17.53,0,10.01,8.12,18.13,18.13,18.13s18.13-8.12,18.13-18.13c0-8.45-5.78-15.52-13.6-17.53v-351.81l211.53-211.52.06-12.85-220.63,220.63v355.56Z"/>
      <path class="cls-1" d="M1259.09,588.98v205.83c-7.82,2.01-13.6,9.09-13.6,17.53,0,10.01,8.12,18.13,18.13,18.13s18.13-8.12,18.13-18.13c0-8.45-5.78-15.52-13.6-17.53v-202.08l305.27-305.28-.06-12.74-314.26,314.27Z"/>
      <path class="cls-1" d="M1509.25,1121.01l29.83-29.83v-250.25l-36.07-36.07v-59.83l40.97-40.97v-198.56c7.82-2.01,13.6-9.09,13.6-17.53,0-10.01-8.12-18.13-18.13-18.13s-18.13,8.12-18.13,18.13c0,8.45,5.79,15.52,13.6,17.53v194.81l-31.92,31.92v-157.28c7.82-2.01,13.6-9.09,13.6-17.53,0-10.01-8.12-18.13-18.13-18.13s-18.13,8.12-18.13,18.13c0,8.45,5.78,15.52,13.6,17.53v220.86l-49.68-49.68v-78.95c7.82-2.01,13.6-9.09,13.6-17.53,0-10.01-8.12-18.13-18.13-18.13s-18.13,8.12-18.13,18.13c0,8.45,5.78,15.52,13.6,17.53v82.7l94.8,94.8v76.62l-127.05-127.05v-47.67h15.18v-39.67h-39.67v39.67h15.44v51.42l136.1,136.1v153.34l-20.78,20.78v-123.75l-74.67-74.67c1.29-2.49,2.03-5.31,2.03-8.31,0-10.01-8.12-18.13-18.13-18.13s-18.13,8.12-18.13,18.13,8.12,18.13,18.13,18.13c3.72,0,7.18-1.13,10.06-3.05l42.66,42.66-51.45,51.45h-120.98v-85.06c17.44-2.23,30.93-17.09,30.93-35.14,0-19.58-15.87-35.46-35.46-35.46s-35.46,15.87-35.46,35.46c0,18.05,13.49,32.91,30.93,35.14v94.11h133.78l54.1-54.1,22.6,22.6v57.18h-233.69c-2.01-7.82-9.09-13.6-17.53-13.6-10.01,0-18.13,8.12-18.13,18.13s8.12,18.13,18.13,18.13c8.45,0,15.52-5.78,17.53-13.6h233.69v18.26h-203.34l-18.56,18.56c-5.99-4.63-13.48-7.42-21.64-7.42-19.58,0-35.46,15.87-35.46,35.46s15.87,35.46,35.46,35.46,35.46-15.87,35.46-35.46c0-8.16-2.78-15.65-7.42-21.64l15.91-15.91h92.76v46.13l-191.54,191.54v53.07h-15.31v39.67h39.67v-39.67h-15.31v-49.33l191.54-191.54v-49.87h97.78v110.53l-165.55,165.55v215.99h9.05v-212.25l165.55-165.55v-75.01Z"/>
      <path class="cls-1" d="M933.2,447.28c-2.01-7.82-9.09-13.6-17.53-13.6-10.01,0-18.13,8.12-18.13,18.13s8.12,18.13,18.13,18.13c8.45,0,15.52-5.78,17.53-13.6h105.25l220.63-220.63v70.47l-231.56,231.56v129.01c-7.82,2.01-13.6,9.09-13.6,17.53,0,10.01,8.12,18.13,18.13,18.13s18.13-8.12,18.13-18.13c0-8.45-5.78-15.52-13.6-17.53v-125.26l231.56-231.56V0h-9.05v222.9l-224.38,224.38h-101.51Z"/>
      <path class="cls-1" d="M0,718.65l110.88-110.87c2.87,1.9,6.3,3.02,10,3.02,10.01,0,18.13-8.12,18.13-18.13s-8.12-18.13-18.13-18.13-18.13,8.12-18.13,18.13c0,3.03.75,5.87,2.06,8.38L0,705.86v12.79Z"/>
      <polygon class="cls-1" points="849.26 205.21 885.2 205.21 885.2 231.16 946.14 231.16 946.14 205.21 1049.98 205.21 1049.98 0 1040.93 0 1040.93 196.17 946.14 196.17 946.14 170.22 885.2 170.22 885.2 196.17 849.26 196.17 849.26 170.22 788.32 170.22 788.32 231.16 849.26 231.16 849.26 205.21"/>
      <path class="cls-1" d="M466.73,227.91h60.94v-30.81h32.71c2.14,11.98,12.59,21.09,25.19,21.09,14.14,0,25.61-11.47,25.61-25.61s-11.47-25.61-25.61-25.61c-12.6,0-23.05,9.1-25.19,21.08h-32.71v-21.08h-60.94v21.08h-29.97V0h-9.05v197.1h39.01v30.81Z"/>
      <polygon class="cls-1" points="123.51 1366.71 149.23 1366.71 149.23 1340.76 170.04 1340.76 170.04 1366.71 195.76 1366.71 195.76 1340.76 216.57 1340.76 216.57 1366.71 242.3 1366.71 242.3 1305.77 216.57 1305.77 216.57 1331.72 195.76 1331.72 195.76 1305.77 170.04 1305.77 170.04 1331.72 149.23 1331.72 149.23 1305.77 123.51 1305.77 123.51 1331.72 0 1331.72 0 1340.76 123.51 1340.76 123.51 1366.71"/>
      <polygon class="cls-1" points="1345.38 189.33 1368.39 189.33 1368.39 203.35 1405.48 203.35 1405.48 189.33 1428.49 189.33 1428.49 203.35 1465.58 203.35 1465.58 189.33 1573.36 189.33 1573.36 180.28 1465.58 180.28 1465.58 166.26 1428.49 166.26 1428.49 180.28 1405.48 180.28 1405.48 166.26 1368.39 166.26 1368.39 180.28 1345.38 180.28 1345.38 166.26 1308.29 166.26 1308.29 203.35 1345.38 203.35 1345.38 189.33"/>
      <circle class="cls-1" cx="138.9" cy="192.58" r="25.61" transform="translate(-85.67 269.71) rotate(-73.16)"/>
      <polygon class="cls-1" points="868.87 415.16 868.87 389.22 807.93 389.22 807.93 450.15 868.87 450.15 868.87 424.21 1006.8 424.21 1222.66 208.34 1222.66 0 1213.61 0 1213.61 204.6 1003.05 415.16 868.87 415.16"/>
      <polygon class="cls-1" points="45.69 989.66 19.75 989.66 19.75 1050.6 45.69 1050.6 45.69 1086.33 19.75 1086.33 19.75 1147.27 80.69 1147.27 80.69 1086.33 54.74 1086.33 54.74 1050.6 80.69 1050.6 80.69 989.66 54.74 989.66 54.74 937.43 0 937.43 0 946.48 45.69 946.48 45.69 989.66"/>
      <polygon class="cls-1" points="203.49 451.48 203.49 411.41 229.43 411.41 229.43 385.69 203.49 385.69 203.49 371.37 229.43 371.37 229.43 345.64 203.49 345.64 203.49 331.32 229.43 331.32 229.43 305.6 168.5 305.6 168.5 331.32 194.44 331.32 194.44 345.64 168.5 345.64 168.5 371.37 194.44 371.37 194.44 385.69 168.5 385.69 168.5 411.41 194.44 411.41 194.44 447.74 163.09 479.09 0 479.09 0 488.14 166.84 488.14 203.49 451.48"/>
      <polygon class="cls-1" points="269.11 490.05 301.99 490.05 301.99 515.99 362.93 515.99 362.93 455.06 301.99 455.06 301.99 481 265.37 481 196.35 550.02 0 550.02 0 559.07 200.1 559.07 269.11 490.05"/>
      <circle class="cls-1" cx="956.75" cy="521.67" r="35.46"/>
      <path class="cls-1" d="M1312,315.49l-176.87,176.87c-2.92-2.02-6.47-3.22-10.3-3.22-10.01,0-18.13,8.12-18.13,18.13s8.12,18.13,18.13,18.13,18.13-8.12,18.13-18.13c0-2.89-.7-5.62-1.9-8.05l179.99-179.99v-64.09l-25.87-25.87V0h-9.05v233.03l25.87,25.87v56.59Z"/>
      <path class="cls-1" d="M1539.08,275.09v-45.8h34.27v-9.05h-220.57v122.53l-232.47,232.47v158.37c-7.82,2.01-13.6,9.09-13.6,17.53,0,10.01,8.12,18.13,18.13,18.13s18.13-8.12,18.13-18.13c0-8.45-5.78-15.52-13.6-17.53v-154.62l54.27-54.27v326.59c-7.82,2.01-13.6,9.09-13.6,17.53,0,10.01,8.12,18.13,18.13,18.13s18.13-8.12,18.13-18.13c0-8.45-5.78-15.52-13.6-17.53v-335.63l169.16-169.16v-117.22h27.27v132.1l-101.16,101.16-9.91-9.91-26.22,26.22,9.91,9.91-12.07,12.07-9.91-9.91-26.22,26.22,26.22,26.22,26.22-26.22-9.91-9.91,12.07-12.07,9.91,9.91,26.22-26.22-9.91-9.91,103.81-103.81v-135.85h42.26v61.2c-7.82,2.01-13.6,9.09-13.6,17.53,0,10.01,8.12,18.13,18.13,18.13s18.13-8.12,18.13-18.13c0-8.45-5.78-15.52-13.6-17.53v-61.2h80.58v42.05l-310.26,310.26v145.72c-7.82,2.01-13.6,9.09-13.6,17.53,0,10.01,8.12,18.13,18.13,18.13s18.13-8.12,18.13-18.13c0-8.45-5.78-15.52-13.6-17.53v-141.97l310.26-310.26Z"/>
      <polygon class="cls-1" points="1392.06 1266.9 1420.12 1238.85 1409.29 1228.02 1421.73 1215.58 1432.56 1226.4 1460.61 1198.35 1432.56 1170.3 1404.51 1198.35 1415.33 1209.18 1402.89 1221.62 1392.06 1210.79 1364.01 1238.85 1374.84 1249.67 1291.69 1332.83 1291.69 1573.81 1300.74 1573.81 1300.74 1336.57 1381.24 1256.07 1392.06 1266.9"/>
      <polygon class="cls-1" points="1305.94 593.03 1305.94 682.56 1290.62 682.56 1290.62 722.23 1305.94 722.23 1305.94 743.15 1290.62 743.15 1290.62 782.82 1330.29 782.82 1330.29 743.15 1314.98 743.15 1314.98 722.23 1330.29 722.23 1330.29 682.56 1314.98 682.56 1314.98 596.77 1573.41 338.35 1573.35 325.61 1305.94 593.03"/>
      <path class="cls-1" d="M367.1,1327.22c0-13.28-10.77-24.05-24.05-24.05s-24.05,10.77-24.05,24.05,10.77,24.05,24.05,24.05c5.01,0,9.65-1.53,13.5-4.15l83.55,83.55v142.74h9.05v-146.49l-86.2-86.2c2.62-3.85,4.15-8.5,4.15-13.5Z"/>
      <path class="cls-1" d="M2686.27,1344.1c-2.7-1.6-5.84-2.53-9.2-2.53-10.01,0-18.13,8.12-18.13,18.13s8.12,18.13,18.13,18.13,18.13-8.12,18.13-18.13c0-3.36-.93-6.5-2.53-9.2l63.08-63.08h391.08v-9.05h-394.82l-65.73,65.73Z"/>
      <path class="cls-1" d="M2827.57,1365.71c-10.01,0-18.13,8.12-18.13,18.13s8.12,18.13,18.13,18.13c8.45,0,15.52-5.78,17.53-13.6h301.72v-9.05h-301.72c-2.01-7.82-9.09-13.6-17.53-13.6Z"/>
      <path class="cls-1" d="M2560.87,1363.69c-8.45,0-15.52,5.78-17.53,13.6h-452.66v-51.48h124.02l64.24-64.24h141.06l128.74-128.74c2.52,1.33,5.4,2.09,8.45,2.09,10.01,0,18.13-8.12,18.13-18.13s-8.12-18.13-18.13-18.13-18.13,8.12-18.13,18.13c0,3.67,1.1,7.08,2.98,9.94l-125.79,125.79h-128.26l107.48-107.48c2.7,1.6,5.84,2.53,9.2,2.53,10.01,0,18.13-8.12,18.13-18.13s-8.12-18.13-18.13-18.13-18.13,8.12-18.13,18.13c0,3.36.93,6.5,2.53,9.2l-178.12,178.12h-120.27v-18.79h95.9l126.67-126.67c2.7,1.6,5.84,2.53,9.2,2.53,10.01,0,18.13-8.12,18.13-18.13s-8.12-18.13-18.13-18.13-18.13,8.12-18.13,18.13c0,3.36.93,6.5,2.53,9.2l-124.02,124.02h-92.16v-42.57l101.2-101.2c2.7,1.6,5.84,2.53,9.2,2.53,10.01,0,18.13-8.12,18.13-18.13s-8.12-18.13-18.13-18.13-18.13,8.12-18.13,18.13c0,3.36.93,6.5,2.53,9.2l-103.85,103.85v331.2h9.05v-187.47h452.66c2.01,7.82,9.09,13.6,17.53,13.6,10.01,0,18.13-8.12,18.13-18.13s-8.12-18.13-18.13-18.13Z"/>
      <path class="cls-1" d="M1812.62,1129.95c0-10.01-8.12-18.13-18.13-18.13s-18.13,8.12-18.13,18.13,8.12,18.13,18.13,18.13c3.36,0,6.5-.93,9.2-2.53l177.62,177.62v250.65h9.05v-254.39l-180.27-180.27c1.6-2.7,2.53-5.84,2.53-9.2Z"/>
      <path class="cls-1" d="M2659.72,963.54h-90.37l105.98-105.98h16.25v25.95h60.94v-60.94h-60.94v25.95h-20l-115.02,115.02h-258.53l-51.48-51.48c1.6-2.7,2.53-5.84,2.53-9.2,0-10.01-8.12-18.13-18.13-18.13s-18.13,8.12-18.13,18.13,8.11,18.13,18.13,18.13c3.36,0,6.5-.93,9.2-2.53l54.13,54.13h361.69l193.99,193.99h-53.27l-166.11-166.11h-108.11v-15.31h-39.67v15.31h-26.6v-15.31h-39.67v15.31h-20.65v-15.31h-39.67v39.67h39.67v-15.31h20.65v15.31h39.67v-15.31h26.6v15.31h39.67v-15.31h104.36l157.06,157.06h-51.92l-121.19-121.19h-350.89l-122.1-122.1c1.6-2.7,2.53-5.84,2.53-9.2,0-10.01-8.12-18.13-18.13-18.13s-18.13,8.12-18.13,18.13,8.12,18.13,18.13,18.13c3.36,0,6.5-.93,9.2-2.53l115.7,115.7h-30.89l-61.6-61.6h-84.03v-25.95h-60.94v60.94h60.94v-25.95h80.28l52.55,52.55h-197.58l-67.98-67.98c1.6-2.7,2.53-5.84,2.53-9.2,0-10.01-8.11-18.13-18.13-18.13s-18.13,8.12-18.13,18.13,8.12,18.13,18.13,18.13c3.36,0,6.5-.93,9.2-2.53l70.63,70.63h122.07l-70.6,70.6h-21.39v-25.94h-60.94v60.94h60.94v-25.95h25.13l79.65-79.65h44.7l-129.73,129.73h-99.28c-2.01-7.82-9.09-13.6-17.53-13.6-10.01,0-18.13,8.12-18.13,18.13s8.12,18.13,18.13,18.13c8.45,0,15.52-5.78,17.53-13.6h103.03l138.78-138.78h154.77l-173.45,173.45c-2.7-1.6-5.84-2.53-9.2-2.53-10.01,0-18.13,8.12-18.13,18.13s8.12,18.13,18.13,18.13,18.13-8.12,18.13-18.13c0-3.36-.93-6.5-2.53-9.2l179.85-179.85h102.14v78.01l-48.68,48.68-10.83-10.83-28.05,28.05,28.05,28.05,28.05-28.05-10.83-10.83,51.33-51.33v-81.76h133.83l112.15,112.15h-115.94l-64.14,64.14c-2.7-1.6-5.84-2.53-9.2-2.53-10.01,0-18.13,8.12-18.13,18.13s8.12,18.13,18.13,18.13,18.13-8.12,18.13-18.13c0-3.36-.93-6.5-2.53-9.2l61.49-61.49h252.02l64.34,64.33h-70.49l-46.14-46.14h-189.69v22.02h-25.95v60.94h60.94v-60.94h-25.95v-12.98h176.9l37.09,37.09h-112.12l-76.8,76.8h-263.74c-2.01-7.82-9.09-13.6-17.53-13.6-10.01,0-18.13,8.12-18.13,18.13s8.12,18.13,18.13,18.13c8.45,0,15.52-5.78,17.53-13.6h267.49l76.8-76.8h117.42l.27.27.27-.27h297.18v-9.05h-210.68l-276.42-276.42Z"/>
      <path class="cls-1" d="M2020.14,1261.04c0-10.01-8.12-18.13-18.13-18.13s-18.13,8.12-18.13,18.13,8.12,18.13,18.13,18.13c3.28,0,6.35-.89,9.01-2.41l23.03,23.03v274.02h9.05v-277.77l-25.61-25.61c1.67-2.74,2.65-5.95,2.65-9.39Z"/>
      <path class="cls-1" d="M1724.62,1129.95c0-10.01-8.12-18.13-18.13-18.13s-18.13,8.12-18.13,18.13,8.12,18.13,18.13,18.13c3.36,0,6.5-.93,9.2-2.53l177.62,177.62v250.65h9.05v-254.39l-180.27-180.27c1.6-2.7,2.53-5.84,2.53-9.2Z"/>
      <path class="cls-1" d="M1696.14,1336.24c-3.36,0-6.5.93-9.2,2.53l-113.47-113.47v12.79l107.07,107.07c-1.6,2.7-2.53,5.84-2.53,9.2,0,10.01,8.12,18.13,18.13,18.13s18.13-8.12,18.13-18.13-8.12-18.13-18.13-18.13Z"/>
      <path class="cls-1" d="M2312.74,626.61c-10.01,0-18.13,8.12-18.13,18.13s8.12,18.13,18.13,18.13,18.13-8.12,18.13-18.13c0-3.36-.93-6.5-2.53-9.2l187.96-187.96v-205.62h32.12v244.14l-211.23,211.23h-114.7v-25.95h-60.94v60.94h60.94v-25.95h118.45l207.48-207.48v199.36h-25.95v25.73h25.95v14.32h-25.95v25.73h25.95v14.32h-25.95v25.73h60.94v-25.73h-25.95v-14.32h25.95v-25.73h-25.95v-14.32h25.95v-25.73h-25.95V241.95h29.8v386.26l96.9,96.9-113.16,113.16h-71.02v-91.65h-128.91l122.55-122.55c2.6,1.44,5.58,2.26,8.75,2.26,10.01,0,18.13-8.12,18.13-18.13s-8.12-18.13-18.13-18.13-18.13,8.12-18.13,18.13c0,3.55,1.04,6.85,2.8,9.65l-128.77,128.77h-177.2l-110.38,110.38v-227.11h25.95v-60.94h-60.94v60.94h25.94v236.16l-26.95,26.95c-2.7-1.6-5.84-2.53-9.2-2.53-10.01,0-18.13,8.12-18.13,18.13s8.12,18.13,18.13,18.13,18.13-8.12,18.13-18.13c0-3.36-.93-6.5-2.53-9.2l143.72-143.72h306.11v82.6h-30.2v-48.58h-202.12l-29.74,29.74c-2.74-1.66-5.94-2.64-9.38-2.64-10.01,0-18.13,8.12-18.13,18.13s8.12,18.13,18.13,18.13,18.13-8.12,18.13-18.13c0-3.29-.89-6.36-2.42-9.02l27.16-27.16h189.33v39.53h-39.97c-2.01-7.82-9.09-13.6-17.53-13.6-10.01,0-18.13,8.12-18.13,18.13s8.12,18.13,18.13,18.13c8.45,0,15.52-5.78,17.53-13.6h163.04l115.82-115.82,33.15,33.15-136.01,136.01h-248.68c-2.01-7.82-9.09-13.6-17.53-13.6-10.01,0-18.13,8.12-18.13,18.13s8.12,18.13,18.13,18.13c8.45,0,15.52-5.79,17.53-13.6h252.43l138.66-138.66,60.16,60.16c-1.6,2.7-2.53,5.84-2.53,9.2,0,10.01,8.12,18.13,18.13,18.13s18.13-8.12,18.13-18.13-8.12-18.13-18.13-18.13c-3.36,0-6.5.93-9.2,2.53l-200.34-200.34v-58.53l272.37,272.37c-4.88,6.25-7.81,14.08-7.81,22.62,0,20.34,16.49,36.83,36.83,36.83s36.83-16.49,36.83-36.83-16.49-36.83-36.83-36.83c-8.54,0-16.38,2.93-22.62,7.81l-278.77-278.77v-50.48h98.49l366.65,366.65c-1.6,2.7-2.53,5.84-2.53,9.2,0,10.01,8.12,18.13,18.13,18.13s18.13-8.12,18.13-18.13-8.12-18.13-18.13-18.13c-3.36,0-6.5.93-9.2,2.53l-369.3-369.3h-102.23v-35.64h139.22v-32.4l152.97-152.97c2.7,1.6,5.84,2.53,9.2,2.53,10.01,0,18.13-8.12,18.13-18.13s-8.11-18.13-18.13-18.13-18.13,8.12-18.13,18.13c0,3.36.93,6.5,2.53,9.2l-146.57,146.57v-83.75l56.82-56.82c2.7,1.6,5.84,2.53,9.2,2.53,10.01,0,18.13-8.12,18.13-18.13s-8.12-18.13-18.13-18.13-18.13,8.12-18.13,18.13c0,3.36.93,6.5,2.53,9.2l-59.47,59.47v123.64h-130.17v-216.02h-80.02V0h-9.05v443.82l-185.31,185.31c-2.7-1.6-5.84-2.53-9.2-2.53Z"/>
      <path class="cls-1" d="M3078.48,453.44c10.01,0,18.13-8.12,18.13-18.13,0-8.45-5.78-15.52-13.6-17.53V0h-9.05v417.78c-7.82,2.01-13.6,9.09-13.6,17.53,0,10.01,8.12,18.13,18.13,18.13Z"/>
      <path class="cls-1" d="M2276.15,608.21c-10.01,0-18.13,8.12-18.13,18.13s8.12,18.13,18.13,18.13,18.13-8.12,18.13-18.13c0-3.36-.93-6.5-2.53-9.2l187.96-187.96V0h-9.05v425.43l-185.31,185.31c-2.7-1.6-5.84-2.53-9.2-2.53Z"/>
      <path class="cls-1" d="M1976.8,215.28c3.36,0,6.5-.93,9.2-2.53l159.64,159.64h257.07v36.36l-185.31,185.31c-2.7-1.6-5.84-2.53-9.2-2.53-10.01,0-18.13,8.12-18.13,18.13s8.12,18.13,18.13,18.13,18.13-8.12,18.13-18.13c0-3.36-.93-6.5-2.53-9.2l187.96-187.96V2.62h-9.05v255.84h-225.15c-2.01-7.82-9.09-13.6-17.53-13.6-10.01,0-18.13,8.12-18.13,18.13s8.12,18.13,18.13,18.13c8.45,0,15.52-5.78,17.53-13.6h225.15v24.82h-165.51c-2.72-6.58-9.19-11.22-16.76-11.22-10.01,0-18.13,8.12-18.13,18.13s8.12,18.13,18.13,18.13c9.28,0,16.93-6.98,17.99-15.98h164.28v61.96h-253.32l-156.99-156.99c1.6-2.7,2.53-5.84,2.53-9.2,0-10.01-8.12-18.13-18.13-18.13s-18.13,8.12-18.13,18.13,8.12,18.13,18.13,18.13Z"/>
      <path class="cls-1" d="M3050.5,919.11l-343.32-343.33c1.6-2.7,2.53-5.84,2.53-9.2,0-10.01-8.12-18.13-18.13-18.13s-18.13,8.12-18.13,18.13,8.12,18.13,18.13,18.13c3.36,0,6.5-.93,9.2-2.53l340.67,340.68v243.72h-73v-207.09c7.82-2.01,13.6-9.09,13.6-17.53,0-10.01-8.12-18.13-18.13-18.13s-18.13,8.12-18.13,18.13c0,8.45,5.78,15.52,13.6,17.53v200.69l-76.11-76.11h.82v-164.76h-136.47c-2.01-7.82-9.09-13.6-17.53-13.6-10.01,0-18.13,8.12-18.13,18.13s8.12,18.13,18.13,18.13c8.45,0,15.52-5.78,17.53-13.6h127.42v147.49l-64.64-64.64c1.6-2.7,2.53-5.84,2.53-9.2,0-10.01-8.12-18.13-18.13-18.13s-18.13,8.12-18.13,18.13,8.12,18.13,18.13,18.13c3.36,0,6.5-.93,9.2-2.53l158.03,158.03h184.77v-9.05h-96.33v-247.47Z"/>
      <path class="cls-1" d="M2827.57,547.36c-10.01,0-18.13,8.12-18.13,18.13s8.12,18.13,18.13,18.13c3.36,0,6.5-.93,9.2-2.53l310.05,310.05v-12.79l-303.65-303.65c1.6-2.7,2.53-5.84,2.53-9.2,0-10.01-8.12-18.13-18.13-18.13Z"/>
      <path class="cls-1" d="M2884.42,426.39c1.6-2.7,2.53-5.84,2.53-9.2,0-10.01-8.12-18.13-18.13-18.13s-18.13,8.12-18.13,18.13,8.12,18.13,18.13,18.13c3.36,0,6.5-.93,9.2-2.53l90.93,90.93h177.88v-9.05h-174.13l-88.28-88.28Z"/>
      <path class="cls-1" d="M3003.4,417.76c-7.87,1.98-13.71,9.08-13.71,17.56,0,10.01,8.12,18.13,18.13,18.13s18.13-8.12,18.13-18.13c0-8.41-5.73-15.46-13.49-17.51v-137.28l-137.79-137.79V0h-9.05v146.49l137.79,137.79v133.48Z"/>
      <path class="cls-1" d="M2993.21,648.01c-10.01,0-18.13,8.12-18.13,18.13s8.12,18.13,18.13,18.13c2.7,0,5.24-.6,7.54-1.66l146.07,146.07v-12.79l-139.02-139.02c2.21-3,3.53-6.7,3.53-10.72,0-10.01-8.12-18.13-18.13-18.13Z"/>
      <path class="cls-1" d="M2657.44,381.53c-7.82,2.01-13.6,9.09-13.6,17.53,0,10.01,8.12,18.13,18.13,18.13s18.13-8.12,18.13-18.13c0-8.45-5.78-15.52-13.6-17.53v-77.28l105.23-105.23V0h-9.05v195.28l-105.23,105.23v81.02Z"/>
      <path class="cls-1" d="M1785,598.86v351.81c-7.82,2.01-13.6,9.09-13.6,17.53,0,10.01,8.12,18.13,18.13,18.13s18.13-8.12,18.13-18.13c0-8.45-5.78-15.52-13.6-17.53v-355.56l-220.63-220.63.06,12.85,211.53,211.52Z"/>
      <path class="cls-1" d="M1878.69,794.81c-7.82,2.01-13.6,9.09-13.6,17.53,0,10.01,8.12,18.13,18.13,18.13s18.13-8.12,18.13-18.13c0-8.45-5.78-15.52-13.6-17.53v-205.83l-314.26-314.27-.06,12.74,305.27,305.28v202.08Z"/>
      <path class="cls-1" d="M1944.99,1319.42l-191.55-191.54v-46.13h92.76l15.91,15.91c-4.63,5.99-7.42,13.48-7.42,21.64,0,19.58,15.87,35.46,35.46,35.46s35.46-15.87,35.46-35.46-15.87-35.46-35.46-35.46c-8.16,0-15.65,2.78-21.64,7.42l-18.56-18.56h-203.34v-18.26h233.69c2.01,7.82,9.09,13.6,17.53,13.6,10.01,0,18.13-8.12,18.13-18.13s-8.12-18.13-18.13-18.13c-8.45,0-15.52,5.78-17.53,13.6h-233.69v-57.18l22.6-22.6,54.1,54.1h133.78v-94.11c17.44-2.23,30.93-17.09,30.93-35.14,0-19.58-15.87-35.46-35.46-35.46s-35.46,15.87-35.46,35.46c0,18.05,13.49,32.91,30.93,35.14v85.06h-120.98l-51.45-51.45,42.66-42.66c2.88,1.93,6.34,3.05,10.06,3.05,10.01,0,18.13-8.12,18.13-18.13s-8.12-18.13-18.13-18.13-18.13,8.12-18.13,18.13c0,3,.74,5.82,2.03,8.31l-74.67,74.67v123.75l-20.78-20.78v-153.34l136.1-136.1v-51.42h15.44v-39.67h-39.67v39.67h15.18v47.67l-127.05,127.05v-76.62l94.8-94.8v-82.7c7.82-2.01,13.6-9.09,13.6-17.53,0-10.01-8.12-18.13-18.13-18.13s-18.13,8.12-18.13,18.13c0,8.45,5.78,15.52,13.6,17.53v78.95l-49.68,49.68v-220.86c7.82-2.01,13.6-9.09,13.6-17.53,0-10.01-8.12-18.13-18.13-18.13s-18.13,8.12-18.13,18.13c0,8.45,5.79,15.52,13.6,17.53v157.28l-31.92-31.92v-194.81c7.82-2.01,13.6-9.09,13.6-17.53,0-10.01-8.12-18.13-18.13-18.13s-18.13,8.12-18.13,18.13c0,8.45,5.78,15.52,13.6,17.53v198.56l40.97,40.97v59.83l-36.07,36.07v250.25l29.83,29.83v75.01l165.55,165.55v212.25h9.05v-215.99l-165.55-165.55v-110.53h97.78v49.87l191.54,191.54v49.33h-15.31v39.67h39.67v-39.67h-15.31v-53.07Z"/>
      <path class="cls-1" d="M2110.25,666.73c-7.82,2.01-13.6,9.09-13.6,17.53,0,10.01,8.12,18.13,18.13,18.13s18.13-8.12,18.13-18.13c0-8.45-5.78-15.52-13.6-17.53v-129.01l-231.56-231.56v-70.47l220.63,220.63h105.25c2.01,7.82,9.09,13.6,17.53,13.6,10.01,0,18.13-8.12,18.13-18.13s-8.12-18.13-18.13-18.13c-8.45,0-15.52,5.79-17.53,13.6h-101.51l-224.38-224.38V0h-9.05v309.91l231.56,231.56v125.26Z"/>
      <path class="cls-1" d="M3025.95,574.54c-10.01,0-18.13,8.12-18.13,18.13s8.12,18.13,18.13,18.13c3.7,0,7.14-1.11,10-3.02l110.88,110.87v-12.79l-104.81-104.81c1.31-2.51,2.06-5.35,2.06-8.38,0-10.01-8.12-18.13-18.13-18.13Z"/>
      <polygon class="cls-1" points="2200.69 231.16 2261.62 231.16 2261.62 205.21 2297.57 205.21 2297.57 231.16 2358.5 231.16 2358.5 170.22 2297.57 170.22 2297.57 196.17 2261.62 196.17 2261.62 170.22 2200.69 170.22 2200.69 196.17 2105.89 196.17 2105.89 0 2096.84 0 2096.84 205.21 2200.69 205.21 2200.69 231.16"/>
      <path class="cls-1" d="M2561.26,218.19c12.6,0,23.05-9.1,25.19-21.09h32.71v30.81h60.94v-30.81h39.01V0h-9.05v188.05h-29.97v-21.08h-60.94v21.08h-32.71c-2.14-11.98-12.59-21.08-25.19-21.08-14.14,0-25.61,11.47-25.61,25.61s11.47,25.61,25.61,25.61Z"/>
      <polygon class="cls-1" points="3023.32 1305.77 2997.59 1305.77 2997.59 1331.72 2976.79 1331.72 2976.79 1305.77 2951.06 1305.77 2951.06 1331.72 2930.25 1331.72 2930.25 1305.77 2904.53 1305.77 2904.53 1366.71 2930.25 1366.71 2930.25 1340.76 2951.06 1340.76 2951.06 1366.71 2976.79 1366.71 2976.79 1340.76 2997.59 1340.76 2997.59 1366.71 3023.32 1366.71 3023.32 1340.76 3146.83 1340.76 3146.83 1331.72 3023.32 1331.72 3023.32 1305.77"/>
      <polygon class="cls-1" points="1681.25 203.35 1718.34 203.35 1718.34 189.33 1741.35 189.33 1741.35 203.35 1778.43 203.35 1778.43 189.33 1801.45 189.33 1801.45 203.35 1838.53 203.35 1838.53 166.26 1801.45 166.26 1801.45 180.28 1778.43 180.28 1778.43 166.26 1741.35 166.26 1741.35 180.28 1718.34 180.28 1718.34 166.26 1681.25 166.26 1681.25 180.28 1573.47 180.28 1573.47 189.33 1681.25 189.33 1681.25 203.35"/>
      <circle class="cls-1" cx="3007.93" cy="192.58" r="25.61" transform="translate(2.36 419.06) rotate(-7.97)"/>
      <polygon class="cls-1" points="2277.96 424.21 2277.96 450.15 2338.9 450.15 2338.9 389.22 2277.96 389.22 2277.96 415.16 2143.78 415.16 1933.21 204.6 1933.21 0 1924.16 0 1924.16 208.34 2140.03 424.21 2277.96 424.21"/>
      <polygon class="cls-1" points="3092.08 989.66 3066.14 989.66 3066.14 1050.6 3092.08 1050.6 3092.08 1086.33 3066.14 1086.33 3066.14 1147.27 3127.08 1147.27 3127.08 1086.33 3101.13 1086.33 3101.13 1050.6 3127.08 1050.6 3127.08 989.66 3101.13 989.66 3101.13 946.48 3146.83 946.48 3146.83 937.43 3092.08 937.43 3092.08 989.66"/>
      <polygon class="cls-1" points="2983.74 479.09 2952.38 447.74 2952.38 411.41 2978.33 411.41 2978.33 385.69 2952.38 385.69 2952.38 371.37 2978.33 371.37 2978.33 345.64 2952.38 345.64 2952.38 331.32 2978.33 331.32 2978.33 305.6 2917.39 305.6 2917.39 331.32 2943.34 331.32 2943.34 345.64 2917.39 345.64 2917.39 371.37 2943.34 371.37 2943.34 385.69 2917.39 385.69 2917.39 411.41 2943.34 411.41 2943.34 451.48 2979.99 488.14 3146.83 488.14 3146.83 479.09 2983.74 479.09"/>
      <polygon class="cls-1" points="2881.46 481 2844.84 481 2844.84 455.06 2783.9 455.06 2783.9 515.99 2844.84 515.99 2844.84 490.05 2877.71 490.05 2946.73 559.07 3146.83 559.07 3146.83 550.02 2950.48 550.02 2881.46 481"/>
      <circle class="cls-1" cx="2190.07" cy="521.67" r="35.46"/>
      <path class="cls-1" d="M1825.77,319.24l179.99,179.99c-1.21,2.43-1.9,5.15-1.9,8.05,0,10.01,8.12,18.13,18.13,18.13s18.13-8.12,18.13-18.13-8.12-18.13-18.13-18.13c-3.83,0-7.37,1.19-10.3,3.22l-176.87-176.87v-56.59l25.87-25.87V0h-9.05v229.29l-25.87,25.87v64.09Z"/>
      <path class="cls-1" d="M1607.74,275.09l310.26,310.26v141.97c-7.82,2.01-13.6,9.09-13.6,17.53,0,10.01,8.12,18.13,18.13,18.13s18.13-8.12,18.13-18.13c0-8.45-5.78-15.52-13.6-17.53v-145.72l-310.26-310.26v-42.05h80.58v61.2c-7.82,2.01-13.6,9.09-13.6,17.53,0,10.01,8.12,18.13,18.13,18.13s18.13-8.12,18.13-18.13c0-8.45-5.79-15.52-13.6-17.53v-61.2h42.26v135.85l103.81,103.81-9.91,9.91,26.22,26.22,9.91-9.91,12.07,12.07-9.91,9.91,26.22,26.22,26.22-26.22-26.22-26.22-9.91,9.91-12.07-12.07,9.91-9.91-26.22-26.22-9.91,9.91-101.16-101.16v-132.1h27.27v117.22l169.16,169.16v335.63c-7.82,2.01-13.6,9.09-13.6,17.53,0,10.01,8.12,18.13,18.13,18.13s18.13-8.12,18.13-18.13c0-8.45-5.78-15.52-13.6-17.53v-326.59l54.27,54.27v154.62c-7.82,2.01-13.6,9.09-13.6,17.53,0,10.01,8.12,18.13,18.13,18.13s18.13-8.12,18.13-18.13c0-8.45-5.78-15.52-13.6-17.53v-158.37l-232.47-232.47v-122.53h-220.57v9.05h34.27v45.8Z"/>
      <polygon class="cls-1" points="1782.81 1238.85 1754.76 1210.79 1743.93 1221.62 1731.49 1209.18 1742.32 1198.35 1714.27 1170.3 1686.22 1198.35 1714.27 1226.4 1725.09 1215.58 1737.54 1228.02 1726.71 1238.85 1754.76 1266.9 1765.59 1256.07 1846.09 1336.57 1846.09 1573.81 1855.14 1573.81 1855.14 1332.83 1771.99 1249.67 1782.81 1238.85"/>
      <polygon class="cls-1" points="1856.2 722.23 1856.2 682.56 1840.89 682.56 1840.89 593.03 1573.47 325.61 1573.41 338.35 1831.84 596.77 1831.84 682.56 1816.53 682.56 1816.53 722.23 1831.84 722.23 1831.84 743.15 1816.53 743.15 1816.53 782.82 1856.2 782.82 1856.2 743.15 1840.89 743.15 1840.89 722.23 1856.2 722.23"/>
      <path class="cls-1" d="M2827.83,1327.22c0-13.28-10.77-24.05-24.05-24.05s-24.05,10.77-24.05,24.05c0,5.01,1.53,9.65,4.15,13.5l-86.2,86.2v146.49h9.05v-142.74l83.55-83.55c3.85,2.62,8.5,4.15,13.5,4.15,13.28,0,24.05-10.77,24.05-24.05Z"/>
    </g>
  </g>
</svg>