<?xml version="1.0" encoding="UTF-8"?>
<svg xmlns="http://www.w3.org/2000/svg" xmlns:xlink="http://www.w3.org/1999/xlink" viewBox="0 0 507.5 507.5">
  <defs>
    <style>
      .cls-1 {
        fill: none;
      }

      .cls-2 {
        mask: url(#mask);
      }

      .cls-3 {
        filter: url(#luminosity-noclip);
      }

      .cls-4 {
        fill: url(#radial-gradient-4);
      }

      .cls-4, .cls-5, .cls-6, .cls-7, .cls-8, .cls-9, .cls-10, .cls-11, .cls-12, .cls-13 {
        mix-blend-mode: screen;
      }

      .cls-5 {
        fill: url(#radial-gradient-8);
      }

      .cls-6 {
        fill: url(#radial-gradient-2);
      }

      .cls-7 {
        fill: url(#radial-gradient-6);
      }

      .cls-14 {
        filter: url(#luminosity-noclip-17);
      }

      .cls-15 {
        filter: url(#luminosity-noclip-13);
      }

      .cls-16 {
        filter: url(#luminosity-noclip-11);
      }

      .cls-17 {
        filter: url(#luminosity-noclip-19);
      }

      .cls-18 {
        filter: url(#luminosity-noclip-15);
      }

      .cls-19 {
        filter: url(#luminosity-noclip-3);
      }

      .cls-20 {
        filter: url(#luminosity-noclip-9);
      }

      .cls-21 {
        filter: url(#luminosity-noclip-7);
      }

      .cls-22 {
        filter: url(#luminosity-noclip-5);
      }

      .cls-23 {
        fill: url(#radial-gradient-15);
      }

      .cls-23, .cls-24, .cls-25, .cls-26, .cls-27, .cls-28, .cls-29, .cls-30, .cls-31, .cls-32 {
        mix-blend-mode: multiply;
      }

      .cls-24 {
        fill: url(#radial-gradient-11);
      }

      .cls-25 {
        fill: url(#radial-gradient-17);
      }

      .cls-26 {
        fill: url(#radial-gradient-19);
      }

      .cls-27 {
        fill: url(#radial-gradient-13);
      }

      .cls-28 {
        fill: url(#radial-gradient);
      }

      .cls-33 {
        fill: #3a3a3a;
      }

      .cls-34 {
        isolation: isolate;
      }

      .cls-35 {
        mask: url(#mask-2);
      }

      .cls-36 {
        mask: url(#mask-3);
      }

      .cls-37 {
        mask: url(#mask-4);
      }

      .cls-38 {
        mask: url(#mask-5);
      }

      .cls-39 {
        mask: url(#mask-7);
      }

      .cls-40 {
        mask: url(#mask-6);
      }

      .cls-41 {
        mask: url(#mask-1);
      }

      .cls-42 {
        mask: url(#mask-9);
      }

      .cls-43 {
        mask: url(#mask-8);
      }

      .cls-8 {
        fill: url(#radial-gradient-16);
      }

      .cls-9 {
        fill: url(#radial-gradient-12);
      }

      .cls-10 {
        fill: url(#radial-gradient-14);
      }

      .cls-11 {
        fill: url(#radial-gradient-10);
      }

      .cls-12 {
        fill: url(#radial-gradient-18);
      }

      .cls-13 {
        fill: url(#radial-gradient-20);
      }

      .cls-44 {
        fill: #fff;
      }

      .cls-45 {
        fill: #9c7247;
      }

      .cls-46 {
        fill: #565656;
      }

      .cls-29 {
        fill: url(#radial-gradient-9);
      }

      .cls-30 {
        fill: url(#radial-gradient-3);
      }

      .cls-31 {
        fill: url(#radial-gradient-7);
      }

      .cls-32 {
        fill: url(#radial-gradient-5);
      }

      .cls-47 {
        mask: url(#mask-10);
      }

      .cls-48 {
        mask: url(#mask-14);
      }

      .cls-49 {
        mask: url(#mask-18);
      }

      .cls-50 {
        mask: url(#mask-11);
      }

      .cls-51 {
        mask: url(#mask-16);
      }

      .cls-52 {
        mask: url(#mask-13);
      }

      .cls-53 {
        mask: url(#mask-19);
      }

      .cls-54 {
        mask: url(#mask-12);
      }

      .cls-55 {
        mask: url(#mask-17);
      }

      .cls-56 {
        mask: url(#mask-15);
      }

      .cls-57 {
        fill: #ec2029;
      }

      .cls-58 {
        clip-path: url(#clippath);
      }

      .cls-59 {
        fill: #7b7b7b;
      }
    </style>
    <clipPath id="clippath">
      <circle class="cls-1" cx="253.75" cy="253.75" r="248.14"/>
    </clipPath>
    <filter id="luminosity-noclip" x="448.05" y="174.58" width="97.69" height="62.8" color-interpolation-filters="sRGB" filterUnits="userSpaceOnUse">
      <feFlood flood-color="#fff" result="bg"/>
      <feBlend in="SourceGraphic" in2="bg"/>
    </filter>
    <filter id="luminosity-noclip-2" x="448.05" y="-8445.28" width="97.69" height="32766" color-interpolation-filters="sRGB" filterUnits="userSpaceOnUse">
      <feFlood flood-color="#fff" result="bg"/>
      <feBlend in="SourceGraphic" in2="bg"/>
    </filter>
    <mask id="mask-1" x="448.05" y="-8445.28" width="97.69" height="32766" maskUnits="userSpaceOnUse"/>
    <radialGradient id="radial-gradient" cx="468.13" cy="4125.97" fx="468.13" fy="4125.97" r="58.05" gradientTransform="translate(41.45 362.57) rotate(-32.72) scale(1 .03)" gradientUnits="userSpaceOnUse">
      <stop offset="0" stop-color="#fff"/>
      <stop offset=".05" stop-color="#e1e1e1"/>
      <stop offset=".15" stop-color="#adadad"/>
      <stop offset=".26" stop-color="#7e7e7e"/>
      <stop offset=".37" stop-color="#575757"/>
      <stop offset=".48" stop-color="#373737"/>
      <stop offset=".6" stop-color="#1f1f1f"/>
      <stop offset=".72" stop-color="#0d0d0d"/>
      <stop offset=".85" stop-color="#030303"/>
      <stop offset="1" stop-color="#000"/>
    </radialGradient>
    <mask id="mask" x="448.05" y="174.58" width="97.69" height="62.8" maskUnits="userSpaceOnUse">
      <g class="cls-3">
        <g class="cls-41">
          <path class="cls-28" d="M545.73,174.61c.48.75-21,15.4-47.97,32.73-26.97,17.33-49.23,30.77-49.71,30.02-.48-.75,21-15.4,47.97-32.73,26.97-17.33,49.23-30.77,49.71-30.02Z"/>
        </g>
      </g>
    </mask>
    <radialGradient id="radial-gradient-2" cx="468.13" cy="4125.97" fx="468.13" fy="4125.97" r="58.05" gradientTransform="translate(41.45 362.57) rotate(-32.72) scale(1 .03)" gradientUnits="userSpaceOnUse">
      <stop offset="0" stop-color="#e21f26"/>
      <stop offset=".07" stop-color="#e21f26"/>
      <stop offset="1" stop-color="#e21f26"/>
    </radialGradient>
    <filter id="luminosity-noclip-3" x="439.51" y="167.22" width="114.76" height="77.52" color-interpolation-filters="sRGB" filterUnits="userSpaceOnUse">
      <feFlood flood-color="#fff" result="bg"/>
      <feBlend in="SourceGraphic" in2="bg"/>
    </filter>
    <filter id="luminosity-noclip-4" x="439.51" y="-8445.28" width="114.76" height="32766" color-interpolation-filters="sRGB" filterUnits="userSpaceOnUse">
      <feFlood flood-color="#fff" result="bg"/>
      <feBlend in="SourceGraphic" in2="bg"/>
    </filter>
    <mask id="mask-3" x="439.51" y="-8445.28" width="114.76" height="32766" maskUnits="userSpaceOnUse"/>
    <radialGradient id="radial-gradient-3" cx="436.65" cy="679.3" fx="436.65" fy="679.3" r="58.05" gradientTransform="translate(-28.64 326.44) rotate(-32.71) scale(1.16 .27)" gradientUnits="userSpaceOnUse">
      <stop offset="0" stop-color="#fff"/>
      <stop offset=".04" stop-color="#dedede"/>
      <stop offset=".1" stop-color="#b0b0b0"/>
      <stop offset=".17" stop-color="#868686"/>
      <stop offset=".24" stop-color="#626262"/>
      <stop offset=".31" stop-color="#434343"/>
      <stop offset=".4" stop-color="#2a2a2a"/>
      <stop offset=".49" stop-color="#171717"/>
      <stop offset=".6" stop-color="#0a0a0a"/>
      <stop offset=".74" stop-color="#020202"/>
      <stop offset="1" stop-color="#000"/>
    </radialGradient>
    <mask id="mask-2" x="439.51" y="167.22" width="114.76" height="77.52" maskUnits="userSpaceOnUse">
      <g class="cls-19">
        <g class="cls-36">
          <path class="cls-30" d="M553.64,169.53c4.66,7.26-16.97,29.46-48.31,49.59-31.34,20.13-60.52,30.57-65.18,23.31-4.66-7.26,16.97-29.46,48.31-49.59,31.34-20.13,60.52-30.57,65.18-23.32Z"/>
        </g>
      </g>
    </mask>
    <radialGradient id="radial-gradient-4" cx="436.65" cy="679.3" fx="436.65" fy="679.3" r="58.05" gradientTransform="translate(-28.64 326.44) rotate(-32.71) scale(1.16 .27)" gradientUnits="userSpaceOnUse">
      <stop offset="0" stop-color="#e21f26"/>
      <stop offset=".15" stop-color="#e21f26"/>
      <stop offset="1" stop-color="#e21f26"/>
    </radialGradient>
    <filter id="luminosity-noclip-5" x="462.22" y="194.36" width="69.35" height="23.23" color-interpolation-filters="sRGB" filterUnits="userSpaceOnUse">
      <feFlood flood-color="#fff" result="bg"/>
      <feBlend in="SourceGraphic" in2="bg"/>
    </filter>
    <filter id="luminosity-noclip-6" x="462.22" y="-8445.28" width="69.35" height="32766" color-interpolation-filters="sRGB" filterUnits="userSpaceOnUse">
      <feFlood flood-color="#fff" result="bg"/>
      <feBlend in="SourceGraphic" in2="bg"/>
    </filter>
    <mask id="mask-5" x="462.22" y="-8445.28" width="69.35" height="32766" maskUnits="userSpaceOnUse"/>
    <radialGradient id="radial-gradient-5" cx="639.88" cy="502.63" fx="639.88" fy="502.63" r="58.05" gradientTransform="translate(98.5 232.41) rotate(-13.89) scale(.61 .14)" xlink:href="#radial-gradient"/>
    <mask id="mask-4" x="462.22" y="194.36" width="69.35" height="23.23" maskUnits="userSpaceOnUse">
      <g class="cls-22">
        <g class="cls-38">
          <path class="cls-32" d="M531.51,197.41c1.07,4.33-13.56,11.68-32.68,16.41-19.12,4.73-35.49,5.05-36.56.72-1.07-4.33,13.56-11.68,32.68-16.41,19.12-4.73,35.49-5.05,36.56-.72Z"/>
        </g>
      </g>
    </mask>
    <radialGradient id="radial-gradient-6" cx="639.88" cy="502.63" fx="639.88" fy="502.63" r="58.05" gradientTransform="translate(98.5 232.41) rotate(-13.89) scale(.61 .14)" xlink:href="#radial-gradient-2"/>
    <filter id="luminosity-noclip-7" x="453.38" y="195.32" width="87.02" height="21.31" color-interpolation-filters="sRGB" filterUnits="userSpaceOnUse">
      <feFlood flood-color="#fff" result="bg"/>
      <feBlend in="SourceGraphic" in2="bg"/>
    </filter>
    <filter id="luminosity-noclip-8" x="453.38" y="-8445.28" width="87.02" height="32766" color-interpolation-filters="sRGB" filterUnits="userSpaceOnUse">
      <feFlood flood-color="#fff" result="bg"/>
      <feBlend in="SourceGraphic" in2="bg"/>
    </filter>
    <mask id="mask-7" x="453.38" y="-8445.28" width="87.02" height="32766" maskUnits="userSpaceOnUse"/>
    <radialGradient id="radial-gradient-7" cx="545.09" cy="-1670.79" fx="545.09" fy="-1670.79" r="58.08" gradientTransform="translate(72.12 176.98) rotate(13.42) scale(.77 .04)" xlink:href="#radial-gradient"/>
    <mask id="mask-6" x="453.38" y="195.32" width="87.02" height="21.31" maskUnits="userSpaceOnUse">
      <g class="cls-21">
        <g class="cls-39">
          <path class="cls-31" d="M540.4,216.36c-.31,1.32-20.05-2.27-44.07-8-24.03-5.73-43.25-11.45-42.94-12.76.31-1.32,20.05,2.27,44.07,8,24.03,5.73,43.25,11.45,42.94,12.76Z"/>
        </g>
      </g>
    </mask>
    <radialGradient id="radial-gradient-8" cx="545.09" cy="-1670.79" fx="545.09" fy="-1670.79" r="58.08" gradientTransform="translate(72.12 176.98) rotate(13.42) scale(.77 .04)" xlink:href="#radial-gradient-2"/>
    <filter id="luminosity-noclip-9" x="466.15" y="175.39" width="61.48" height="61.18" color-interpolation-filters="sRGB" filterUnits="userSpaceOnUse">
      <feFlood flood-color="#fff" result="bg"/>
      <feBlend in="SourceGraphic" in2="bg"/>
    </filter>
    <filter id="luminosity-noclip-10" x="466.15" y="-8445.28" width="61.48" height="32766" color-interpolation-filters="sRGB" filterUnits="userSpaceOnUse">
      <feFlood flood-color="#fff" result="bg"/>
      <feBlend in="SourceGraphic" in2="bg"/>
    </filter>
    <mask id="mask-9" x="466.15" y="-8445.28" width="61.48" height="32766" maskUnits="userSpaceOnUse"/>
    <radialGradient id="radial-gradient-9" cx="678.76" cy="126.87" fx="678.76" fy="126.87" r="58.06" gradientTransform="translate(162.75 57.51) rotate(13.43) scale(.53)" xlink:href="#radial-gradient"/>
    <mask id="mask-8" x="466.15" y="175.39" width="61.48" height="61.18" maskUnits="userSpaceOnUse">
      <g class="cls-20">
        <g class="cls-42">
          <path class="cls-29" d="M526.8,213.12c-3.92,16.42-20.48,26.54-37,22.6-16.52-3.94-26.73-20.45-22.81-36.88,3.92-16.42,20.48-26.54,37-22.6,16.52,3.94,26.73,20.45,22.81,36.88Z"/>
        </g>
      </g>
    </mask>
    <radialGradient id="radial-gradient-10" cx="678.76" cy="126.87" fx="678.76" fy="126.87" r="58.06" gradientTransform="translate(162.75 57.51) rotate(13.43) scale(.53)" xlink:href="#radial-gradient-2"/>
    <filter id="luminosity-noclip-11" x="468.02" y="174.67" width="57.75" height="62.61" color-interpolation-filters="sRGB" filterUnits="userSpaceOnUse">
      <feFlood flood-color="#fff" result="bg"/>
      <feBlend in="SourceGraphic" in2="bg"/>
    </filter>
    <filter id="luminosity-noclip-12" x="468.02" y="-8445.28" width="57.75" height="32766" color-interpolation-filters="sRGB" filterUnits="userSpaceOnUse">
      <feFlood flood-color="#fff" result="bg"/>
      <feBlend in="SourceGraphic" in2="bg"/>
    </filter>
    <mask id="mask-11" x="468.02" y="-8445.28" width="57.75" height="32766" maskUnits="userSpaceOnUse"/>
    <radialGradient id="radial-gradient-11" cx="445.18" cy="-6745.68" fx="445.18" fy="-6745.68" r="58.1" gradientTransform="translate(138.49 92.77) rotate(47.32) scale(.73 .03)" xlink:href="#radial-gradient"/>
    <mask id="mask-10" x="468.02" y="174.67" width="57.75" height="62.61" maskUnits="userSpaceOnUse">
      <g class="cls-16">
        <g class="cls-50">
          <path class="cls-24" d="M525.75,237.27c-.65.6-14.1-12.92-30.03-30.2-15.93-17.28-28.32-31.78-27.67-32.38.65-.6,14.1,12.92,30.03,30.2s28.32,31.78,27.67,32.38Z"/>
        </g>
      </g>
    </mask>
    <radialGradient id="radial-gradient-12" cx="445.18" cy="-6745.68" fx="445.18" fy="-6745.68" r="58.1" gradientTransform="translate(138.49 92.77) rotate(47.32) scale(.73 .03)" xlink:href="#radial-gradient-2"/>
    <filter id="luminosity-noclip-13" x="473.8" y="172.69" width="46.2" height="66.57" color-interpolation-filters="sRGB" filterUnits="userSpaceOnUse">
      <feFlood flood-color="#fff" result="bg"/>
      <feBlend in="SourceGraphic" in2="bg"/>
    </filter>
    <filter id="luminosity-noclip-14" x="473.8" y="-8445.28" width="46.2" height="32766" color-interpolation-filters="sRGB" filterUnits="userSpaceOnUse">
      <feFlood flood-color="#fff" result="bg"/>
      <feBlend in="SourceGraphic" in2="bg"/>
    </filter>
    <mask id="mask-13" x="473.8" y="-8445.28" width="46.2" height="32766" maskUnits="userSpaceOnUse"/>
    <radialGradient id="radial-gradient-13" cx="316.45" cy="-344.62" fx="316.45" fy="-344.62" r="58.06" gradientTransform="translate(321.07 62.84) rotate(74.33) scale(.59 .38) skewX(.01)" xlink:href="#radial-gradient"/>
    <mask id="mask-12" x="473.8" y="172.69" width="46.2" height="66.57" maskUnits="userSpaceOnUse">
      <g class="cls-15">
        <g class="cls-52">
          <path class="cls-27" d="M506.08,238.72c-11.7,3.29-25.3-8.71-30.37-26.79-5.07-18.09.3-35.41,12-38.7,11.7-3.29,25.3,8.71,30.37,26.79,5.07,18.09-.3,35.41-12,38.7Z"/>
        </g>
      </g>
    </mask>
    <radialGradient id="radial-gradient-14" cx="316.45" cy="-344.62" fx="316.45" fy="-344.62" r="58.06" gradientTransform="translate(321.07 62.84) rotate(74.33) scale(.59 .38) skewX(.01)" xlink:href="#radial-gradient-2"/>
    <filter id="luminosity-noclip-15" x="488.9" y="161.35" width="15.99" height="89.26" color-interpolation-filters="sRGB" filterUnits="userSpaceOnUse">
      <feFlood flood-color="#fff" result="bg"/>
      <feBlend in="SourceGraphic" in2="bg"/>
    </filter>
    <filter id="luminosity-noclip-16" x="488.9" y="-8445.28" width="15.99" height="32766" color-interpolation-filters="sRGB" filterUnits="userSpaceOnUse">
      <feFlood flood-color="#fff" result="bg"/>
      <feBlend in="SourceGraphic" in2="bg"/>
    </filter>
    <mask id="mask-15" x="488.9" y="-8445.28" width="15.99" height="32766" maskUnits="userSpaceOnUse"/>
    <radialGradient id="radial-gradient-15" cx="268.88" cy="-7711.52" fx="268.88" fy="-7711.52" r="58.06" gradientTransform="translate(231.45 39.78) rotate(80.09) scale(.78 .03)" xlink:href="#radial-gradient"/>
    <mask id="mask-14" x="488.9" y="161.35" width="15.99" height="89.26" maskUnits="userSpaceOnUse">
      <g class="cls-18">
        <g class="cls-56">
          <path class="cls-23" d="M504.7,250.61c-.95.17-5.22-19.68-9.53-44.33-4.31-24.65-7.03-44.77-6.08-44.93s5.22,19.68,9.53,44.33c4.31,24.65,7.03,44.77,6.08,44.93Z"/>
        </g>
      </g>
    </mask>
    <radialGradient id="radial-gradient-16" cx="268.88" cy="-7711.52" fx="268.88" fy="-7711.52" r="58.06" gradientTransform="translate(231.45 39.78) rotate(80.09) scale(.78 .03)" xlink:href="#radial-gradient-2"/>
    <filter id="luminosity-noclip-17" x="486.96" y="185.74" width="19.87" height="40.49" color-interpolation-filters="sRGB" filterUnits="userSpaceOnUse">
      <feFlood flood-color="#fff" result="bg"/>
      <feBlend in="SourceGraphic" in2="bg"/>
    </filter>
    <filter id="luminosity-noclip-18" x="486.96" y="-8445.28" width="19.87" height="32766" color-interpolation-filters="sRGB" filterUnits="userSpaceOnUse">
      <feFlood flood-color="#fff" result="bg"/>
      <feBlend in="SourceGraphic" in2="bg"/>
    </filter>
    <mask id="mask-17" x="486.96" y="-8445.28" width="19.87" height="32766" maskUnits="userSpaceOnUse"/>
    <radialGradient id="radial-gradient-17" cx="-84.79" cy="-6473.21" fx="-84.79" fy="-6473.21" r="58.03" gradientTransform="translate(306.56 150.08) rotate(115.87) scale(.39 .03)" xlink:href="#radial-gradient"/>
    <mask id="mask-16" x="486.96" y="185.74" width="19.87" height="40.49" maskUnits="userSpaceOnUse">
      <g class="cls-14">
        <g class="cls-55">
          <path class="cls-25" d="M487.08,226.21c-.87-.42,2.81-9.82,8.23-20.99,5.42-11.17,10.51-19.89,11.39-19.46s-2.81,9.82-8.23,20.99c-5.42,11.17-10.51,19.89-11.39,19.46Z"/>
        </g>
      </g>
    </mask>
    <radialGradient id="radial-gradient-18" cx="-84.79" cy="-6473.21" fx="-84.79" fy="-6473.21" r="58.03" gradientTransform="translate(306.56 150.08) rotate(115.87) scale(.39 .03)" xlink:href="#radial-gradient-2"/>
    <filter id="luminosity-noclip-19" x="480.8" y="189.88" width="32.19" height="32.2" color-interpolation-filters="sRGB" filterUnits="userSpaceOnUse">
      <feFlood flood-color="#fff" result="bg"/>
      <feBlend in="SourceGraphic" in2="bg"/>
    </filter>
    <filter id="luminosity-noclip-20" x="480.8" y="-8445.28" width="32.19" height="32766" color-interpolation-filters="sRGB" filterUnits="userSpaceOnUse">
      <feFlood flood-color="#fff" result="bg"/>
      <feBlend in="SourceGraphic" in2="bg"/>
    </filter>
    <mask id="mask-19" x="480.8" y="-8445.28" width="32.19" height="32766" maskUnits="userSpaceOnUse"/>
    <radialGradient id="radial-gradient-19" cx="494.15" cy="188.38" fx="494.15" fy="188.38" r="16.1" gradientTransform="translate(47.61 -72.73) rotate(10.94)" gradientUnits="userSpaceOnUse">
      <stop offset="0" stop-color="#fff"/>
      <stop offset=".05" stop-color="#d0d0d0"/>
      <stop offset=".1" stop-color="#a5a5a5"/>
      <stop offset=".16" stop-color="#7d7d7d"/>
      <stop offset=".22" stop-color="#5b5b5b"/>
      <stop offset=".28" stop-color="#3e3e3e"/>
      <stop offset=".36" stop-color="#272727"/>
      <stop offset=".44" stop-color="#151515"/>
      <stop offset=".54" stop-color="#090909"/>
      <stop offset=".68" stop-color="#020202"/>
      <stop offset="1" stop-color="#000"/>
    </radialGradient>
    <mask id="mask-18" x="480.8" y="189.88" width="32.19" height="32.2" maskUnits="userSpaceOnUse">
      <g class="cls-17">
        <g class="cls-53">
          <path class="cls-26" d="M512.69,209.03c-1.69,8.73-10.13,14.44-18.85,12.75-8.73-1.69-14.43-10.13-12.74-18.86,1.69-8.73,10.13-14.44,18.85-12.75s14.43,10.13,12.75,18.86Z"/>
        </g>
      </g>
    </mask>
    <radialGradient id="radial-gradient-20" cx="494.15" cy="188.38" fx="494.15" fy="188.38" r="16.1" gradientTransform="translate(47.61 -72.73) rotate(10.94)" gradientUnits="userSpaceOnUse">
      <stop offset="0" stop-color="#fff"/>
      <stop offset=".15" stop-color="#fff"/>
      <stop offset="1" stop-color="#fff"/>
    </radialGradient>
  </defs>
  <g class="cls-34">
    <g id="Layer_2" data-name="Layer 2">
      <g id="Layer_1-2" data-name="Layer 1">
        <circle cx="253.75" cy="253.75" r="253.75"/>
        <g class="cls-58">
          <circle class="cls-46" cx="253.75" cy="253.75" r="262.41"/>
          <g>
            <path class="cls-33" d="M393.6,464.37c0-4.46-3.61-8.07-8.07-8.07s-8.07,3.61-8.07,8.07,3.61,8.07,8.07,8.07c1.5,0,2.89-.41,4.1-1.13l45.04,45.04v18.95h-41.02l-55.2-55.2c.71-1.2,1.13-2.6,1.13-4.1,0-4.46-3.61-8.07-8.07-8.07s-8.07,3.61-8.07,8.07,3.61,8.07,8.07,8.07c1.5,0,2.89-.41,4.1-1.13l56.38,56.38h42.69v8.36h-53.53l-79.28-79.28c.71-1.2,1.13-2.6,1.13-4.09,0-4.46-3.61-8.07-8.07-8.07s-8.07,3.61-8.07,8.07,3.61,8.07,8.07,8.07c1.5,0,2.89-.41,4.09-1.13l47.84,47.84h-57.09l-55.99-55.99c.84-1.27,1.32-2.79,1.32-4.42,0-4.46-3.61-8.07-8.07-8.07s-8.07,3.61-8.07,8.07,3.61,8.07,8.07,8.07c1.36,0,2.64-.34,3.76-.93l57.3,57.3h62.78l28.59,28.59h55.2v22.91h-201.47c-.9-3.48-4.05-6.05-7.8-6.05-4.46,0-8.07,3.61-8.07,8.07s3.61,8.07,8.07,8.07c3.76,0,6.91-2.57,7.8-6.05h201.47v83.44h4.03v-147.41l-46.22-46.22c.71-1.2,1.13-2.6,1.13-4.09Z"/>
            <path class="cls-33" d="M566.5,472.61c4.46,0,8.07-3.61,8.07-8.07s-3.61-8.07-8.07-8.07-8.07,3.61-8.07,8.07c0,1.5.42,2.89,1.13,4.09l-80.24,80.24v113.23h4.03v-111.56l79.06-79.06c1.2.71,2.6,1.13,4.1,1.13Z"/>
            <path class="cls-33" d="M503.91,498.76c4.46,0,8.07-3.61,8.07-8.07s-3.61-8.07-8.07-8.07c-3.76,0-6.91,2.57-7.8,6.05h-44.19l-57.74-57.74h19.89l35.45,35.45h11.19v11.55h27.12v-27.12h-27.12v11.55h-9.52l-31.42-31.42h54.33l31.44-31.44c1.2.71,2.6,1.13,4.1,1.13,4.46,0,8.07-3.61,8.07-8.07s-3.61-8.07-8.07-8.07-8.07,3.61-8.07,8.07c0,1.5.41,2.89,1.13,4.09l-30.26,30.26h-87.94l23.39-23.39h35.73v11.55h27.12v-27.12h-27.12v11.55h-37.4l-27.42,27.42h-13.75l51.5-51.5c1.2.71,2.6,1.13,4.1,1.13,4.46,0,8.07-3.61,8.07-8.07s-3.61-8.07-8.07-8.07-8.07,3.61-8.07,8.07c0,1.5.41,2.89,1.13,4.1l-54.35,54.35h-156.18l-53.94,53.94h-23.11l69.91-69.9h46.45v6.81h17.66v-6.81h11.84v6.81h17.66v-6.81h9.19v6.81h17.66v-17.66h-17.66v6.82h-9.19v-6.82h-17.66v6.82h-11.84v-6.82h-17.66v6.82h-48.12l-73.93,73.93h-23.71l86.34-86.34h160.98l24.09-24.09c1.2.71,2.6,1.13,4.1,1.13,4.46,0,8.07-3.61,8.07-8.07s-3.61-8.07-8.07-8.07-8.07,3.61-8.07,8.07c0,1.5.41,2.89,1.13,4.1l-22.91,22.91h-115.07l-51.2-51.2h-8.9v-11.55h-27.12v27.12h27.12v-11.55h7.23l47.17,47.17h-40.22l-123.03,123.03H-35.41v4.03H96.86l.12.12.12-.12h52.26l34.18,34.18h119.06c.9,3.48,4.05,6.05,7.8,6.05,4.46,0,8.07-3.61,8.07-8.07s-3.61-8.07-8.07-8.07c-3.76,0-6.91,2.57-7.8,6.05h-117.39l-34.18-34.18h-49.9l16.51-16.51h78.74v5.78h-11.55v27.12h27.12v-27.12h-11.55v-9.8h-84.43l-20.53,20.54h-31.37l28.63-28.63h112.17l27.37,27.37c-.71,1.2-1.13,2.6-1.13,4.1,0,4.46,3.61,8.07,8.07,8.07s8.07-3.61,8.07-8.07-3.61-8.07-8.07-8.07c-1.5,0-2.89.41-4.09,1.13l-28.55-28.55h-51.6l49.92-49.92h59.57v36.39l22.85,22.85-4.82,4.82,12.49,12.49,12.49-12.49-12.49-12.49-4.82,4.82-21.67-21.67v-34.72h45.46l80.05,80.05c-.71,1.2-1.13,2.6-1.13,4.09,0,4.46,3.61,8.07,8.07,8.07s8.07-3.61,8.07-8.07-3.61-8.07-8.07-8.07c-1.5,0-2.89.41-4.1,1.13l-77.2-77.2h68.89l61.77,61.77h45.86c.9,3.48,4.05,6.05,7.8,6.05Z"/>
            <path class="cls-33" d="M118.26,83.9c1.5,0,2.89-.41,4.09-1.13l25.29,25.29v37.28l-65.24-65.24c.71-1.2,1.13-2.6,1.13-4.09,0-4.46-3.61-8.07-8.07-8.07s-8.07,3.61-8.07,8.07,3.61,8.07,8.07,8.07c1.5,0,2.89-.41,4.1-1.13l68.08,68.08v14.42h61.97v15.86h-45.5L-.26,345.69c-1.2-.71-2.6-1.13-4.1-1.13-4.46,0-8.07,3.61-8.07,8.07s3.61,8.07,8.07,8.07,8.07-3.61,8.07-8.07c0-1.5-.41-2.89-1.13-4.09l163.19-163.19h43.84v22.47l-124.08,124.08c-2.78-2.17-6.27-3.48-10.07-3.48-9.05,0-16.39,7.34-16.39,16.39s7.34,16.39,16.39,16.39,16.39-7.34,16.39-16.39c0-3.8-1.31-7.29-3.48-10.07l121.23-121.23v26.05l-89.17,89.17c-1.2-.71-2.6-1.13-4.09-1.13-4.46,0-8.07,3.61-8.07,8.07s3.61,8.07,8.07,8.07,8.07-3.61,8.07-8.07c0-1.5-.41-2.89-1.13-4.1l26.78-26.78,61.72,61.71h112.35c.9,3.48,4.04,6.05,7.8,6.05,4.46,0,8.07-3.61,8.07-8.07s-3.61-8.07-8.07-8.07c-3.76,0-6.91,2.57-7.8,6.05h-110.69l-60.54-60.54,14.75-14.75,51.55,51.55h72.57c.9,3.48,4.05,6.05,7.8,6.05,4.46,0,8.07-3.61,8.07-8.07s-3.61-8.07-8.07-8.07c-3.76,0-6.91,2.57-7.8,6.05h-17.79v-17.6h84.27l12.09,12.09c-.68,1.18-1.08,2.55-1.08,4.02,0,4.46,3.61,8.07,8.07,8.07s8.07-3.61,8.07-8.07-3.61-8.07-8.07-8.07c-1.53,0-2.96.43-4.17,1.17l-13.24-13.24h-89.96v21.62h-13.44v-36.76h136.25l63.97,63.97c-.71,1.2-1.13,2.6-1.13,4.1,0,4.46,3.61,8.07,8.07,8.07s8.07-3.61,8.07-8.07-3.61-8.07-8.07-8.07c-1.5,0-2.89.41-4.1,1.13l-11.99-11.99v-105.11h11.55v-27.12h-27.12v27.12h11.55v101.08l-49.13-49.13h-78.87l-57.31-57.31c.78-1.24,1.25-2.71,1.25-4.29,0-4.46-3.61-8.07-8.07-8.07s-8.07,3.61-8.07,8.07,3.61,8.07,8.07,8.07c1.41,0,2.74-.37,3.9-1l54.54,54.54h-57.38v40.79h-31.61l-50.37-50.37,43.13-43.13V69.31h13.26v203.09h-11.55v11.45h11.55v6.37h-11.55v11.45h11.55v6.37h-11.55v11.45h27.12v-11.45h-11.55v-6.37h11.55v-11.45h-11.55v-6.37h11.55v-11.45h-11.55v-88.73l92.35,92.35h52.72v11.55h27.12v-27.12h-27.12v11.55h-51.05l-94.02-94.02v-108.66h14.3v91.52l83.66,83.66c-.71,1.2-1.13,2.6-1.13,4.1,0,4.46,3.61,8.07,8.07,8.07s8.07-3.61,8.07-8.07-3.61-8.07-8.07-8.07c-1.5,0-2.89.41-4.09,1.13l-82.48-82.48V-38.38h-4.03v103.66h-35.62v96.15h-57.94v-55.03l-26.47-26.47c.71-1.2,1.13-2.6,1.13-4.1,0-4.46-3.61-8.07-8.07-8.07s-8.07,3.61-8.07,8.07,3.61,8.07,8.07,8.07Z"/>
            <path class="cls-33" d="M-4.99,163.44c4.46,0,8.07-3.61,8.07-8.07,0-3.76-2.57-6.91-6.05-7.8V-38.38h-4.03v185.95c-3.48.9-6.05,4.05-6.05,7.8,0,4.46,3.61,8.07,8.07,8.07Z"/>
            <path class="cls-33" d="M344.05,240.39c0,4.46,3.61,8.07,8.07,8.07s8.07-3.61,8.07-8.07-3.61-8.07-8.07-8.07c-1.5,0-2.89.42-4.1,1.13l-82.48-82.48V-38.38h-4.03v191.02l83.66,83.66c-.71,1.2-1.13,2.6-1.13,4.09Z"/>
            <path class="cls-33" d="M374.29,232.97c0,4.46,3.61,8.07,8.07,8.07s8.07-3.61,8.07-8.07-3.61-8.07-8.07-8.07c-1.5,0-2.89.41-4.09,1.13l-82.48-82.48v-16.18h114.42l71.05-71.06c1.2.71,2.6,1.13,4.1,1.13,4.46,0,8.07-3.61,8.07-8.07s-3.61-8.07-8.07-8.07-8.07,3.61-8.07,8.07c0,1.5.41,2.89,1.13,4.09l-69.87,69.88h-112.75v-27.58h73.12c.47,4.01,3.87,7.11,8.01,7.11,4.46,0,8.07-3.61,8.07-8.07s-3.61-8.07-8.07-8.07c-3.37,0-6.25,2.06-7.46,4.99h-73.67v-11.05h100.21c.9,3.48,4.04,6.05,7.8,6.05,4.46,0,8.07-3.61,8.07-8.07s-3.61-8.07-8.07-8.07c-3.76,0-6.91,2.57-7.8,6.05h-100.21V-37.21h-4.03v182.43l83.66,83.66c-.71,1.2-1.13,2.6-1.13,4.1Z"/>
            <path class="cls-33" d="M117.17,414.54c1.2.71,2.6,1.13,4.1,1.13,4.46,0,8.07-3.61,8.07-8.07s-3.61-8.07-8.07-8.07-8.07,3.61-8.07,8.07c0,1.5.41,2.89,1.13,4.09l-28.77,28.77v-65.65h56.71c.9,3.48,4.05,6.05,7.8,6.05,4.46,0,8.07-3.61,8.07-8.07s-3.61-8.07-8.07-8.07c-3.76,0-6.91,2.57-7.8,6.05h-60.74v73.33h.37l-33.88,33.88v-89.33c3.48-.9,6.05-4.04,6.05-7.8,0-4.46-3.61-8.07-8.07-8.07s-8.07,3.61-8.07,8.07c0,3.76,2.57,6.91,6.05,7.8v92.17H11.49v-108.48l151.63-151.63c1.2.71,2.6,1.13,4.1,1.13,4.46,0,8.07-3.61,8.07-8.07s-3.61-8.07-8.07-8.07-8.07,3.61-8.07,8.07c0,1.5.41,2.89,1.13,4.09L7.46,370.7v110.15h-42.87v4.03H46.83l70.34-70.34Z"/>
            <path class="cls-33" d="M-35.41,358.25L102.59,220.25c1.2.71,2.6,1.13,4.09,1.13,4.46,0,8.07-3.61,8.07-8.07s-3.61-8.07-8.07-8.07-8.07,3.61-8.07,8.07c0,1.5.42,2.89,1.13,4.1L-35.41,352.56v5.69Z"/>
            <path class="cls-33" d="M84.23,154.25c1.2.71,2.6,1.13,4.1,1.13,4.46,0,8.07-3.61,8.07-8.07s-3.61-8.07-8.07-8.07-8.07,3.61-8.07,8.07c0,1.5.41,2.89,1.13,4.09l-39.29,39.29H-35.41v4.03H43.76l40.47-40.47Z"/>
            <path class="cls-33" d="M24.4,86.48v61.1c-3.46.91-6.01,4.05-6.01,7.79,0,4.46,3.61,8.07,8.07,8.07s8.07-3.61,8.07-8.07c0-3.78-2.6-6.94-6.1-7.82v-59.41l61.33-61.33V-38.38h-4.03V25.15l-61.33,61.33Z"/>
            <path class="cls-33" d="M-35.41,330.45l65.01-65.01c1.02.47,2.16.74,3.36.74,4.46,0,8.07-3.61,8.07-8.07s-3.61-8.07-8.07-8.07-8.07,3.61-8.07,8.07c0,1.79.59,3.43,1.57,4.77l-61.88,61.88v5.69Z"/>
            <path class="cls-33" d="M178.38,131.43c-3.48.9-6.05,4.05-6.05,7.8,0,4.46,3.61,8.07,8.07,8.07s8.07-3.61,8.07-8.07c0-3.76-2.57-6.91-6.05-7.8v-36.06l-46.84-46.84V-38.38h-4.03V50.2l46.84,46.84v34.4Z"/>
            <path class="cls-33" d="M636.34,460.57l13.28-13.28v-111.38l-16.05-16.05v-26.63l18.23-18.24v-88.38c3.48-.9,6.05-4.05,6.05-7.8,0-4.46-3.61-8.07-8.07-8.07s-8.07,3.61-8.07,8.07c0,3.76,2.57,6.91,6.05,7.8v86.71l-14.21,14.21v-70c3.48-.9,6.05-4.04,6.05-7.8,0-4.46-3.61-8.07-8.07-8.07s-8.07,3.61-8.07,8.07c0,3.76,2.57,6.91,6.05,7.8v98.3l-22.11-22.11v-35.14c3.48-.9,6.05-4.04,6.05-7.8,0-4.46-3.61-8.07-8.07-8.07s-8.07,3.61-8.07,8.07c0,3.76,2.57,6.91,6.05,7.8v36.81l42.19,42.19v34.1l-56.55-56.55v-21.22h6.76v-17.66h-17.66v17.66h6.87v22.89l60.58,60.58v68.25l-9.25,9.25v-55.08l-33.24-33.24c.57-1.11.9-2.37.9-3.7,0-4.46-3.61-8.07-8.07-8.07s-8.07,3.61-8.07,8.07,3.61,8.07,8.07,8.07c1.66,0,3.2-.5,4.48-1.36l18.99,18.99-22.9,22.9h-53.85v-37.86c7.76-.99,13.77-7.61,13.77-15.64,0-8.72-7.07-15.78-15.78-15.78s-15.78,7.07-15.78,15.78c0,8.03,6,14.65,13.77,15.64v41.89h59.54l24.08-24.08,10.06,10.06v25.45h-104.01c-.9-3.48-4.05-6.05-7.8-6.05-4.46,0-8.07,3.61-8.07,8.07s3.61,8.07,8.07,8.07c3.76,0,6.91-2.57,7.8-6.05h104.01v8.13h-90.5l-8.26,8.26c-2.67-2.06-6-3.3-9.63-3.3-8.72,0-15.78,7.07-15.78,15.78s7.07,15.78,15.78,15.78,15.78-7.07,15.78-15.78c0-3.63-1.24-6.97-3.3-9.63l7.08-7.08h41.29v20.53l-85.25,85.25v23.62h-6.82v17.66h17.66v-17.66h-6.81v-21.95l85.25-85.25v-22.2h43.52v49.19l-73.68,73.68v96.14h4.03v-94.47l73.68-73.68v-33.39Z"/>
            <path class="cls-33" d="M425.13,160.7h-45.18c-.9-3.48-4.04-6.05-7.8-6.05-4.46,0-8.07,3.61-8.07,8.07s3.61,8.07,8.07,8.07c3.76,0,6.91-2.57,7.8-6.05h46.85l98.2-98.2v31.36l-103.07,103.07v57.42c-3.48.9-6.05,4.05-6.05,7.8,0,4.46,3.61,8.07,8.07,8.07s8.07-3.61,8.07-8.07c0-3.76-2.57-6.91-6.05-7.8v-55.75l103.07-103.07V-38.38h-4.03V60.83l-99.87,99.87Z"/>
            <path class="cls-33" d="M-35.41,281.48l49.35-49.35c1.28.85,2.81,1.34,4.45,1.34,4.46,0,8.07-3.61,8.07-8.07s-3.61-8.07-8.07-8.07-8.07,3.61-8.07,8.07c0,1.35.33,2.61.92,3.73l-46.65,46.65v5.69Z"/>
            <polygon class="cls-33" points="342.59 52.96 358.58 52.96 358.58 64.5 385.71 64.5 385.71 52.96 431.92 52.96 431.92 -38.38 427.9 -38.38 427.9 48.93 385.71 48.93 385.71 37.38 358.58 37.38 358.58 48.93 342.59 48.93 342.59 37.38 315.46 37.38 315.46 64.5 342.59 64.5 342.59 52.96"/>
            <path class="cls-33" d="M172.33,63.06h27.12v-13.71h14.56c.95,5.33,5.6,9.39,11.21,9.39,6.3,0,11.4-5.1,11.4-11.4s-5.1-11.4-11.4-11.4c-5.61,0-10.26,4.05-11.21,9.38h-14.56v-9.38h-27.12v9.38h-13.34V-38.38h-4.03V49.35h17.36v13.71Z"/>
            <circle class="cls-33" cx="26.41" cy="47.33" r="11.4" transform="translate(-26.54 58.89) rotate(-73.16)"/>
            <polygon class="cls-33" points="351.31 146.4 351.31 134.85 324.19 134.85 324.19 161.98 351.31 161.98 351.31 150.43 412.7 150.43 508.78 54.35 508.78 -38.38 504.76 -38.38 504.76 52.68 411.04 146.4 351.31 146.4"/>
            <polygon class="cls-33" points="-15.07 402.1 -26.62 402.1 -26.62 429.23 -15.07 429.23 -15.07 445.13 -26.62 445.13 -26.62 472.25 .5 472.25 .5 445.13 -11.05 445.13 -11.05 429.23 .5 429.23 .5 402.1 -11.05 402.1 -11.05 378.86 -35.41 378.86 -35.41 382.89 -15.07 382.89 -15.07 402.1"/>
            <polygon class="cls-33" points="55.16 162.57 55.16 144.73 66.71 144.73 66.71 133.28 55.16 133.28 55.16 126.91 66.71 126.91 66.71 115.46 55.16 115.46 55.16 109.09 66.71 109.09 66.71 97.64 39.59 97.64 39.59 109.09 51.13 109.09 51.13 115.46 39.59 115.46 39.59 126.91 51.13 126.91 51.13 133.28 39.59 133.28 39.59 144.73 51.13 144.73 51.13 160.9 37.18 174.86 -35.41 174.86 -35.41 178.88 38.85 178.88 55.16 162.57"/>
            <polygon class="cls-33" points="84.37 179.73 99 179.73 99 191.28 126.12 191.28 126.12 164.16 99 164.16 99 175.71 82.7 175.71 51.98 206.42 -35.41 206.42 -35.41 210.45 53.65 210.45 84.37 179.73"/>
            <circle class="cls-33" cx="390.43" cy="193.81" r="15.78"/>
            <path class="cls-33" d="M548.55,102.04l-78.72,78.72c-1.3-.9-2.88-1.43-4.58-1.43-4.46,0-8.07,3.61-8.07,8.07s3.61,8.07,8.07,8.07,8.07-3.61,8.07-8.07c0-1.29-.31-2.5-.85-3.58l80.11-80.11v-28.52l-11.51-11.51V-38.38h-4.03v103.72l11.51,11.51v25.19Z"/>
            <path class="cls-33" d="M649.62,84.06v-20.38h15.25v-4.03h-98.17v54.53l-103.47,103.47v70.49c-3.48.9-6.05,4.05-6.05,7.8,0,4.46,3.61,8.07,8.07,8.07s8.07-3.61,8.07-8.07c0-3.76-2.57-6.91-6.05-7.8v-68.82l24.15-24.15v145.36c-3.48.9-6.05,4.05-6.05,7.8,0,4.46,3.61,8.07,8.07,8.07s8.07-3.61,8.07-8.07c0-3.76-2.57-6.91-6.05-7.8v-149.39l75.29-75.29v-52.17h12.14v58.8l-45.03,45.03-4.41-4.41-11.67,11.67,4.41,4.41-5.37,5.37-4.41-4.41-11.67,11.67,11.67,11.67,11.67-11.67-4.41-4.41,5.37-5.37,4.41,4.41,11.67-11.67-4.41-4.41,46.21-46.21v-60.46h18.81v27.24c-3.48.9-6.05,4.04-6.05,7.8,0,4.46,3.61,8.07,8.07,8.07s8.07-3.61,8.07-8.07c0-3.76-2.57-6.91-6.05-7.8v-27.24h35.87v18.72l-138.09,138.09v64.86c-3.48.9-6.05,4.05-6.05,7.8,0,4.46,3.61,8.07,8.07,8.07s8.07-3.61,8.07-8.07c0-3.76-2.57-6.91-6.05-7.8v-63.19l138.09-138.09Z"/>
          </g>
          <g>
            <g>
              <path d="M141.44,246.82l-2.78,4.16c-.39.22-1.75.26-1.98.07-.33-.26-1.59-7.15-1.67-8.21-.9-11.35,3.26-25.21,10.17-34.21-2.08-.09-3.51,2.47-5.87,1.87,2.43-8.48,8.11-17.11,13.91-23.75,27.48-31.46,71.07-45.05,110.94-29.74,2.97-3.76,6.23-7.74,9.87-10.88,30.37-26.23,78.68-9.9,77.62,32.24,18.22,9.08,36.56,18.71,52.42,31.61,6.28,5.11,20.24,17.82,23.33,24.92,1.35,3.09.67,6.6-3.14,5.83-8.18-5.52-15.99-11.54-24.3-16.88-13.72-8.81-41.08-23.4-57.77-24.03-7.48-.28-14.73,7.94-20.4,12.18-2.55,9.79-3.49,20.14-8.09,29.32-1.07,2.14-2.41,5.95-4.9,3.38-3.11,8.1-8.41,15.94-14.97,21.64-1.27,1.1-7.64,6.4-9.09,5.06l.8-3.2c-6.24,5.54-12.28,11.04-19.69,15.04-1.24.67-8.15,3.43-8.23,3.88-.04.2.8,3.89.97,4,.67.47,7.77-2.15,11.75,1.35,3.33,2.93,3.11,10.66,5.94,14.92,1,1.5,12.62,10.03,14.37,10.73,2.31.93,8.49.05,11.47.3,7.18.6,11.69,3.14,15.16,9.43,2.49,4.52,5.31,10.74,4.92,15.96-.6,7.88-13.82,10.19-20.23,11.84-8.21,2.11-23.57,2.86-31.79.03-2-.69-3.74-4.55-7.64-5.18s-3.4.59-5.74,1.67c-4.32,2.01-10.76-.73-15.57-.14-.48,3.22-2.18,5.75-5.17,7.19-11.3,5.43-37.16,7.22-48.54,2.13-1.85-.83-6.15-4.36-7.32-4.46-2.98-.26-6.64,2.06-9.6,2.13-4.07.1-16.74-3.19-19.19-6.46-1.79-2.4-1.83-11.57-1.34-14.63.27-1.67,1.69-2.51,2-3.88.75-3.33.31-6.72,1.45-10.84.88-3.21,3.44-7.38,3.88-10.01.87-5.17-1.68-15.08,2.83-18.53,2.14-1.64,3.62-1.14,5.97-1.52.56-.09,2.13-.14,2.02-.91-5.1.47-2.38-4.32-2.96-5.91-.32-.87-6.23-6.01-7.47-7.44-1.62-1.89-4.13-6.57-5.6-7.76-.38-.3-.94-.57-1.08.02-.2,2.34-.7,4.68-2.9,2.35-2.39-2.53-6.73-13.95-6.73-17.32v-9.35ZM333.34,196c-1.71-6.53,1.89-13.82,6.71-18.1,1.24-1.1,5.81-3.62,6.09-4.64-1.72-27.56-31.56-41.58-55.73-31.06-11.03,4.8-17.36,11.55-24.33,21.12-.4.54-.55,1.71-.61,1.78-1.7,1.64-.49-1.46-.56-1.56-.67-1-10.71-4.31-12.58-4.81-37.6-10.07-76.93,7.4-99.37,37.38-.34.45-2.16,3.44-1.9,3.7l13.64-9.6c.65-.22,1.08.13.79.79-1.04,2.38-6.55,6.76-8.53,9.1-6.64,7.86-18.14,28.63-15.45,38.91.16.59.74,1.19,1.27.35,2.6-6.85,7.17-15.12,11.8-20.8.36-.44,1.15-1.69,1.81-1.39-4.59,11.07-9.56,24.71-8.53,36.86.06.76.87,5.41,1.07,5.62.88.91.9-.28,1.12-.75,2.58-5.7,4.19-12.23,8.78-16.87-1.16,4.83-2.63,9.67-2.43,14.71.09,2.19,1.41,10.41,2.43,11.99.14.22.64.7.8.53.44-2.76.19-5.47,1.22-8.13l2.52-4.68c-1.36,6.07-1.14,12.45,2.04,17.99.65,1.14,3.8,5.99,5.18,4.43.7-.8,1.83-4.32,2.72-5.83.31-.53,2.69-4.58,3.43-3.78-.69,2.73-4.22,15.9-2.17,17.4,2.36,1.72,9.58-8.32,12.6-8.31-1.08,2.01-2.93,3.72-3.66,5.95s-1.12,5.29-.35,7.38c.5.34,6.59-3.2,7.64-3.84,2.25-1.37,7.4-5.72,9.2-6.3.27-.09.87-.15.79.26-1.71,1.83-3.29,4.34-4.27,6.68,1.86,1.67,14.57-6.47,16.58-8.27,2.89-2.58,4.25-5.82,7.22-8.28,1.12-.23.87.53.8,1.33-.37,4.15-3.82,7.42-5.62,10.94,6.94-3.05,13.69-6.76,19.79-11.19-1.3,4.44-4.67,7.5-7.76,10.67,9.23.66,17.48-4.23,24.98-8.95l3.88-3.32c-2.05,4.67-6.1,8.41-9.62,12.02-.08.4.51.34.8.27,2.6-.57,8.56-3.09,11.23-4.27,10.8-4.79,24.71-15.66,30.96-25.69,2.98-4.78,5.35-9.99,6.73-15.44.93-.13.5,1.22.53,1.86.22,5.95-.78,9.68-1.78,15.32-.1.55-.84,1.64.17,1.51,5.42-6.43,8.78-14.61,10.55-22.85.64-2.98,1.35-6.85.68-9.73,1.35-1.4,3.32,5.8,3.5,6.38.15.47.11,1.53.77.83,3.87-5.92,2.04-16.88,5.43-22.35.95-1.54,5.51-5.48,7.13-6.76,2.84-2.26,6.77-4.45,9.85-6.48ZM375.97,196.79c-10.1-6.05-20.64-11.43-31.15-16.76-1.42-.09-6.31,5.06-6.85,6.46-4.08,10.52,4.58,8.24,11.56,9.73,25.53,5.43,48.27,21.4,69.91,35.11.23-1-.56-1.27-1.06-1.87-9.94-11.84-29.24-24.77-42.41-32.66ZM238.21,290.62c-3.2-.22-6.74.31-9.89,0-2.18-.22-4.82-1.58-6.82-1.47-2.2.12-5.42,1.83-7.69,1.98-1.7.11-3.08-.73-4.61-.42-.4.08-7.04,3.39-7.25,3.74-.55.88.47,5.04.49,6.6s-.81,3.34-.59,4.77c.28,1.78,2.06,1.37,2.2,2.69.42,3.86-1.55,2.25-1.65,2.41-.31.53,1.13,3.43,1.59,4.01.63.78,8.32,7.06,9.12,7.45,3.28,1.57,9.89,1.1,13.99,2.58,2,.72,3.65,2.05,5.5,3.05.78-.05,3.35-11.07,3.47-12.55.37-4.76-2.73-12.65-.46-17.02.54-1.05,2.19-1.83,2.5-2.85.43-1.45-.06-3.43.11-4.97ZM255.32,290.62c-1.44-.45-2.39.84-3.5,1.04-4.25.77-6.4-1.43-5.59,4.84,2.7.06,5.42-.32,8.02.53l1.07-6.41ZM179.4,291.69c-2.21.14-6.93,1.96-4.06,4.32s3.95-2.17,4.06-4.32ZM263.23,293.93c-1.81.13-7.1,2.71-5.54,4.73.34.44,3.4,1.03,4.42,1.46.78.33,1.59,1.53,2.02,1.56.26.02,4.7-1.74,4.85-1.96,2-2.96-2.75-6.01-5.75-5.79ZM196.89,297.71c-1.59-1.69-11.77-2.06-12.95.38-.94,1.95,1.95,8.07,3.3,8.5.48.15,9.21-1.38,9.98-1.64,1.8-.6.62-6.23-.33-7.24ZM182.07,306.1c.19-.22-.06-1.19-.27-1.6-1.21-2.37-14.98-6.13-17.56-5.25-2.8.95-.73,9.19-.84,11.61,2.46.31,4.79,1.2,6.91,2.46.69.41,1.35-.1,1.05,1.33l-8.81-1.07c-1,1.53,1.26,2.62,2.09,3.79,5.24,7.37,9.08,14.39,11.53,23.2,6.93,2.49,13.5,5.98,20.86,7.2-.11-3.35.11-7.08,1.22-10.27.88-2.52,2.66-3.95,3.59-6.29-4.81,2.52-6.58,1.96-6.41-3.74-.41-.46-7.25,4.54-6.98-.8.08-1.54,2.46-4.05,1.1-5.08-.45-.34-9.35,4.17-9.12-1.86.16-4.15,5.74-4.16,5.38-5.88-.38-1.83-2.8.09-3.51.24-1.32.28-4.35-1.25-5.08-2.34-2.94-4.37,4.56-5.31,4.85-5.65ZM257.46,307.18c4.01-.67,3.06-3.12,0-4.55-2.33-1.09-15.26-3.53-17.3-2.85-.65.22-.86.59-.9,1.25-.06.97,1.46,9.88,1.88,10.43l9.36,1.6c.04.79-1.9.93-2.47,1-1.4.16-2.81.04-4.21.06-2.02.25,4.63,5.59,5.09,6.13,3.88,4.57,5.19,10.14,7.46,15.52,6.01.72,11.91,2.16,17.65,3.99.04-2.77.37-6.04,1.22-8.66.73-2.27,2.22-3.68,3.06-5.75-6.47-1.93-12.7,5-9.09-6.41-1.35-1.28-9.15,6.23-8.06-2.97.12-.99,2.06-1.39,1.64-2.91-1.78-.68-8.57-3.23-9-4.66-1.02-3.4,3.73-5.11,3.66-1.22ZM262.81,308.77c.07.09,2,.92,2.14.85.57-.28,1-1.65,1.63-2.14,1.12-.88,4.84-1.72,4.24-3.76-1.05-3.55-8.92,3.82-8.01,5.05ZM184.21,307.71c-2.04.37-4.86.3-5.34,2.66,2.98.83,6.02,1.56,5.34-2.66ZM192.92,310.56c1.42-.64,6.53.87,5.73-2.04-.24-.85-.99-.6-1.59-.58-1.54.05-8.91.91-9.6,1.95-1.79,2.68,3.76,1.83,4.91,1.53.43-.11.43-.79.55-.85ZM268.26,315.05c1.24.41,6.54-3.62,5.53-5.22-1.38-2.18-2.34-.36-2.87-.05-1.53.9-4.36,1.88-3.82,3.95.02.08,1.08,1.29,1.16,1.32ZM194.9,312.52c-1.02.84-6.16,1.39-6.38,1.63-.09.1-.1,2.02-.03,2.1.21.24,5.77-1.97,6.05-2.12.73-.41.27-.97.36-1.61ZM274.04,320.53c1.03-1.58,4.38-4.54,5.08-5.87,1.09-2.07-2.79-1.73-4-1.32-.75.26-3.99,3.06-4.3,3.72,1.65.84,3.34,1.21,3.21,3.47ZM200.17,315.28c-1.67-1.02-10.58,2.07-10.59,3.92,0,.18,1.54,1.67,1.97,1.79,2.33.65,6.11-4.25,9.24-3.67.15-.17-.42-1.92-.62-2.05ZM249.13,325.11c-.91-1.37-6.35-9.6-8.24-7.79-.53.5-1.8,13.68-1.35,14.44.69,1.14,13.14,4.23,13.64,3.73.41-4-2.06-7.38-4.05-10.37ZM281.36,317.4c-.38.1-3.14,2.75-3.32,3.13-.94,1.98,1.94,2.95,2.94,2.43.22-.11,3.14-3.56,3.19-3.8.24-1.06-1.97-1.98-2.81-1.76ZM157.02,335.95c.38.6,12.25,3.73,13.64,3.79,3.06.12.9-5.28.21-7.21-1.87-5.2-6.03-10.83-9.91-14.67-2.2,5.73-4.53,11.82-3.93,18.08ZM185.74,320.98c.52-.33.95-2.9-.2-3.13-3.13-.62-2.65,4.92.2,3.13ZM193.84,324.27c-.78-.08-2.74,1.59-2.14,2.13,1.07.97,1.95-1.84,2.14-2.13,1.47.14,1.74,1.33,2.51,1.55,1.41.38,2.3-1.57,3.4-2.31s4.76-2.03,4.24-3.77c-.73-2.4-8.27,1.74-9.38,2.93-.7.76-.54,1.22-.78,1.61ZM289,320.54c-2.79-1.45-4.73,1.08-4.81,3.73.37.41,5.99-1.99,4.81-3.73ZM270.83,323.73c2.25.1,2.25-3.3,0-3.2v3.2ZM313.5,335.4c.67-1.09-.32-5.36-.87-6.69-2.62-6.3-12.66-6.72-18.49-5.98-3.87.49-6.45,4.07-9.39,4.51-.72.11-1.12-.8-1.81-.75-3.95.31-8.09,10.81-7.33,13.98.35,1.45,13.15,2.05,15.19,1.89,2.94-.24,21.7-5.33,22.7-6.96ZM199.78,327.95c.11.19,3.36,1.7,3.96,2.05.54-1.17,5.2-4.29,5.07-4.91-.79-3.62-10.51.26-9.02,2.87ZM233.87,341.83c-.02-5.96-4.16-11.68-9.96-13.15-11.47-2.91-20.52-.48-23.81,11.74-.41,1.52-1.72,6.75-.42,7.66,1.77,1.23,13.78-.56,16.63-1.08,5.98-1.1,11.97-2.83,17.56-5.16ZM310.39,344.57c.58-.67,3.85,2.87,5.62,1.08,1.39-1.41,1.26-6.96-1.16-7.4-.74-.14-4.85,2.34-6.09,2.83-20.83,8.2-27.97,3.26-48.08-1.07-3.21-.69-6.54-.82-9.75-1.47-4.28-.87-8.41-2.32-12.72-3.05-.49.52,1.98,10.88,3.3,11.66,1.07.63,4.58-1.21,5.95-.89,1.27.3,3.14,4.11,5.72,3.12-1.53-7.65,7.87-6.78,12.47-4.18,2.7,1.52,5.77,6.24,8.24,6.76,2.78.59,4.64-1.96,5.23-1.96.42,0,2.15,2.48,3.44,2.88,1.22.38,4.88.63,5.64-.3.53-.65.51-2.74,2.05-2.59,1.81.18,3.11,3.12,3.35,3.14.64.05,3.77-.9,4.48-1.36,1.68-1.1,1.72-3.41,3.49-4.51,2.57,3.86,2.96,4.75,7.37,2.01,1.72-1.06,1.49-2.91,1.45-4.69ZM235.4,353.52c1.51-1.62,1.63-6.79-.19-8.38-12.23,3.98-26.9,8.2-39.8,5.6-6.54-1.32-12.95-4.61-19.22-6.44-6.5-1.9-13.67-2.65-20.13-5.05-3.12-.4-2.11,6.06-1.55,8.01,1.85,6.47,5.13,2.7,9.91,2.65.14.79-.2,4.08,0,4.28.27.27,7.33.16,7.53-.88.21-1.1-.96-3.1-.58-4.46l-1.59,1.6c.91-3.05-6.87-2.87-7.49-3.74-.15-2.57,2.35-2.58,4.43-2.11.38.08.44.82.83.98,3.96,1.64,10.32,3.96,13.83,5.83,2.84,1.51,6.92,6.23,9.78,6.83s2.61-3.36,4.99-2.37c1.7.71,1.01,4.14,4.4,4.69,1.04.17,3.06.23,3.99-.22,1.41-.69,1.4-4.03,1.88-4.02,4.35,0,2.29,5.93,7.45,4.85.59-.12.1-1.37.31-1.58.37-.35,2.31.22,2.62-.08.18-.17.4-4.1.56-4.25,1.36-1.32,4.7,2.59,5.85,2.97,5.72,1.86,3.58-4.46,5.71-5.07,1.12-.32,3.68,3.37,6.48.37Z"/>
              <path class="cls-59" d="M182.07,306.1c-.29.34-7.79,1.28-4.85,5.65.73,1.09,3.76,2.62,5.08,2.34.71-.15,3.13-2.06,3.51-.24.36,1.72-5.23,1.73-5.38,5.88-.23,6.03,8.68,1.52,9.12,1.86,1.36,1.04-1.02,3.54-1.1,5.08-.26,5.34,6.57.34,6.98.8-.17,5.7,1.61,6.26,6.41,3.74-.93,2.34-2.71,3.77-3.59,6.29-1.11,3.19-1.33,6.92-1.22,10.27-7.35-1.22-13.92-4.71-20.86-7.2-2.45-8.81-6.3-15.83-11.53-23.2-.83-1.17-3.09-2.26-2.09-3.79l8.81,1.07c.3-1.42-.37-.92-1.05-1.33-2.12-1.26-4.45-2.15-6.91-2.46.11-2.42-1.96-10.66.84-11.61,2.58-.88,16.34,2.88,17.56,5.25.21.41.45,1.38.27,1.6Z"/>
              <path class="cls-59" d="M257.46,307.18c.07-3.88-4.68-2.18-3.66,1.22.43,1.42,7.22,3.97,9,4.66.42,1.52-1.53,1.92-1.64,2.91-1.09,9.19,6.71,1.69,8.06,2.97-3.61,11.41,2.62,4.49,9.09,6.41-.84,2.08-2.33,3.49-3.06,5.75-.85,2.63-1.18,5.9-1.22,8.66-5.74-1.84-11.64-3.28-17.65-3.99-2.27-5.38-3.58-10.94-7.46-15.52-.46-.54-7.11-5.88-5.09-6.13,1.4-.02,2.81.1,4.21-.06.56-.07,2.51-.21,2.47-1l-9.36-1.6c-.42-.56-1.94-9.46-1.88-10.43.04-.66.25-1.03.9-1.25,2.05-.68,14.98,1.76,17.3,2.85,3.05,1.43,4.01,3.88,0,4.55Z"/>
              <path class="cls-45" d="M375.97,196.79c13.18,7.9,32.47,20.82,42.41,32.66.5.6,1.3.87,1.06,1.87-21.64-13.71-44.38-29.68-69.91-35.11-6.98-1.48-15.64.8-11.56-9.73.54-1.4,5.43-6.54,6.85-6.46,10.5,5.33,21.05,10.71,31.15,16.76ZM359.04,194.99c-.21-.87-1.23-1.17-1.94-1.53-3.05-1.55-12.27-5.57-15.31-5.29-.83.08-1.95.56-2.53,1.22l19.78,5.6Z"/>
              <path class="cls-33" d="M235.4,353.52c-2.79,3-5.36-.69-6.48-.37-2.13.61,0,6.93-5.71,5.07-1.14-.37-4.49-4.28-5.85-2.97-.15.15-.38,4.08-.56,4.25-.32.3-2.26-.27-2.62.08-.22.21.28,1.46-.31,1.58-5.16,1.08-3.1-4.85-7.45-4.85-.48,0-.46,3.33-1.88,4.02-.92.45-2.94.39-3.99.22-3.39-.55-2.7-3.99-4.4-4.69-2.38-.99-2.1,2.98-4.99,2.37s-6.94-5.31-9.78-6.83c-3.51-1.87-9.88-4.19-13.83-5.83-.39-.16-.45-.9-.83-.98-2.08-.47-4.58-.46-4.43,2.11.63.88,8.41.69,7.49,3.74l1.59-1.6c-.37,1.36.79,3.36.58,4.46-.2,1.04-7.26,1.15-7.53.88-.19-.19.15-3.49,0-4.28-4.78.05-8.06,3.82-9.91-2.65-.56-1.95-1.57-8.41,1.55-8.01,6.45,2.4,13.63,3.15,20.13,5.05,6.27,1.83,12.67,5.12,19.22,6.44,12.9,2.6,27.57-1.63,39.8-5.6,1.82,1.58,1.7,6.76.19,8.38Z"/>
              <path class="cls-46" d="M313.5,335.4c-1,1.63-19.76,6.72-22.7,6.96-2.04.17-14.84-.43-15.19-1.89-.76-3.17,3.38-13.67,7.33-13.98.69-.05,1.09.86,1.81.75,2.94-.45,5.52-4.02,9.39-4.51,5.83-.74,15.87-.32,18.49,5.98.55,1.33,1.54,5.61.87,6.69Z"/>
              <path class="cls-46" d="M233.87,341.83c-5.59,2.34-11.57,4.06-17.56,5.16-2.84.52-14.86,2.31-16.63,1.08-1.31-.91.01-6.14.42-7.66,3.29-12.21,12.33-14.64,23.81-11.74,5.8,1.47,9.94,7.19,9.96,13.15Z"/>
              <path class="cls-33" d="M310.39,344.57c.03,1.79.26,3.63-1.45,4.69-4.41,2.73-4.8,1.85-7.37-2.01-1.77,1.1-1.81,3.42-3.49,4.51-.71.46-3.85,1.42-4.48,1.36-.23-.02-1.53-2.96-3.35-3.14-1.54-.15-1.52,1.94-2.05,2.59-.76.93-4.41.68-5.64.3-1.29-.4-3.02-2.87-3.44-2.88-.59,0-2.44,2.54-5.23,1.96-2.47-.52-5.54-5.24-8.24-6.76-4.61-2.6-14-3.47-12.47,4.18-2.57.99-4.44-2.82-5.72-3.12-1.36-.32-4.87,1.52-5.95.89-1.32-.78-3.8-11.14-3.3-11.66,4.31.73,8.43,2.18,12.72,3.05,3.21.65,6.55.78,9.75,1.47,20.11,4.33,27.25,9.27,48.08,1.07,1.24-.49,5.35-2.97,6.09-2.83,2.42.44,2.55,5.99,1.16,7.4-1.77,1.79-5.05-1.75-5.62-1.08Z"/>
              <path class="cls-46" d="M157.02,335.95c-.59-6.26,1.73-12.35,3.93-18.08,3.88,3.84,8.05,9.47,9.91,14.67.69,1.93,2.85,7.33-.21,7.21-1.38-.06-13.26-3.19-13.64-3.79Z"/>
              <path class="cls-46" d="M249.13,325.11c1.99,2.99,4.46,6.37,4.05,10.37-.5.51-12.95-2.59-13.64-3.73-.46-.76.82-13.93,1.35-14.44,1.89-1.81,7.33,6.42,8.24,7.79Z"/>
              <path class="cls-33" d="M196.89,297.71c.95,1.01,2.13,6.64.33,7.24-.77.26-9.5,1.79-9.98,1.64-1.35-.43-4.24-6.54-3.3-8.5,1.18-2.44,11.36-2.08,12.95-.38Z"/>
              <path class="cls-33" d="M263.23,293.93c3-.22,7.76,2.83,5.75,5.79-.15.22-4.59,1.98-4.85,1.96-.44-.04-1.24-1.24-2.02-1.56-1.03-.43-4.08-1.02-4.42-1.46-1.56-2.02,3.73-4.6,5.54-4.73Z"/>
              <path class="cls-45" d="M255.32,290.62l-1.07,6.41c-2.6-.85-5.32-.48-8.02-.53-.81-6.27,1.34-4.07,5.59-4.84,1.11-.2,2.06-1.49,3.5-1.04Z"/>
              <path class="cls-46" d="M199.78,327.95c-1.49-2.61,8.24-6.49,9.02-2.87.13.62-4.52,3.74-5.07,4.91-.6-.35-3.85-1.85-3.96-2.05Z"/>
              <path class="cls-46" d="M193.84,324.27c-.18.3-1.07,3.1-2.14,2.13-.6-.54,1.35-2.21,2.14-2.13.24-.39.07-.85.78-1.61,1.11-1.19,8.65-5.33,9.38-2.93.53,1.73-3.09,2.99-4.24,3.77s-2,2.7-3.4,2.31c-.77-.21-1.04-1.4-2.51-1.55Z"/>
              <path class="cls-46" d="M200.17,315.28c.2.12.77,1.87.62,2.05-3.12-.58-6.91,4.31-9.24,3.67-.43-.12-1.97-1.61-1.97-1.79,0-1.85,8.91-4.94,10.59-3.92Z"/>
              <path class="cls-46" d="M274.04,320.53c.13-2.26-1.56-2.63-3.21-3.47.31-.65,3.55-3.46,4.3-3.72,1.21-.42,5.09-.75,4,1.32-.7,1.33-4.06,4.29-5.08,5.87Z"/>
              <path class="cls-46" d="M192.92,310.56c-.13.06-.12.74-.55.85-1.16.31-6.71,1.15-4.91-1.53.69-1.04,8.06-1.9,9.6-1.95.6-.02,1.36-.26,1.59.58.81,2.91-4.3,1.4-5.73,2.04Z"/>
              <path class="cls-46" d="M262.81,308.77c-.9-1.23,6.96-8.6,8.01-5.05.6,2.04-3.11,2.88-4.24,3.76-.63.49-1.06,1.86-1.63,2.14-.14.07-2.07-.76-2.14-.85Z"/>
              <path class="cls-46" d="M268.26,315.05c-.08-.03-1.14-1.23-1.16-1.32-.54-2.07,2.29-3.04,3.82-3.95.53-.31,1.49-2.13,2.87.05,1.01,1.6-4.29,5.63-5.53,5.22Z"/>
              <path class="cls-46" d="M281.36,317.4c.84-.22,3.05.7,2.81,1.76-.05.24-2.97,3.69-3.19,3.8-1,.51-3.88-.46-2.94-2.43.18-.38,2.94-3.04,3.32-3.13Z"/>
              <path class="cls-45" d="M179.4,291.69c-.1,2.15-1.29,6.58-4.06,4.32s1.85-4.17,4.06-4.32Z"/>
              <path class="cls-46" d="M184.21,307.71c.68,4.22-2.36,3.49-5.34,2.66.49-2.37,3.3-2.29,5.34-2.66Z"/>
              <path class="cls-46" d="M289,320.54c1.19,1.74-4.43,4.14-4.81,3.73.07-2.65,2.01-5.18,4.81-3.73Z"/>
              <path class="cls-46" d="M194.9,312.52c-.08.64.37,1.2-.36,1.61-.28.16-5.84,2.36-6.05,2.12-.07-.08-.06-2.01.03-2.1.22-.24,5.36-.79,6.38-1.63Z"/>
              <path class="cls-46" d="M185.74,320.98c-2.85,1.79-3.33-3.75-.2-3.13,1.15.23.72,2.8.2,3.13Z"/>
              <path class="cls-46" d="M270.83,323.73v-3.2c2.25-.1,2.25,3.3,0,3.2Z"/>
              <path class="cls-45" d="M333.34,196c-3.08,2.03-7.01,4.22-9.85,6.48-1.62,1.28-6.18,5.23-7.13,6.76-3.39,5.47-1.56,16.43-5.43,22.35-.67.7-.62-.36-.77-.83-.19-.59-2.15-7.78-3.5-6.38.67,2.88-.04,6.75-.68,9.73-1.78,8.23-5.13,16.42-10.55,22.85-1.01.13-.27-.96-.17-1.51,1-5.64,2.01-9.37,1.78-15.32-.02-.64.4-1.99-.53-1.86-1.39,5.45-3.76,10.66-6.73,15.44-6.25,10.04-20.16,20.9-30.96,25.69-2.67,1.18-8.63,3.71-11.23,4.27-.29.06-.88.13-.8-.27,3.51-3.61,7.56-7.35,9.62-12.02l-3.88,3.32c-7.5,4.72-15.75,9.61-24.98,8.95,3.09-3.17,6.46-6.23,7.76-10.67-6.1,4.44-12.85,8.15-19.79,11.19,1.8-3.52,5.25-6.8,5.62-10.94.07-.79.33-1.55-.8-1.33-2.97,2.46-4.33,5.7-7.22,8.28-2.01,1.8-14.71,9.94-16.58,8.27.98-2.34,2.56-4.84,4.27-6.68.08-.4-.52-.34-.79-.26-1.81.58-6.95,4.93-9.2,6.3-1.05.64-7.15,4.18-7.64,3.84-.77-2.09-.34-5.26.35-7.38.73-2.23,2.57-3.95,3.66-5.95-3.02-.01-10.24,10.03-12.6,8.31-2.06-1.5,1.48-14.67,2.17-17.4-.74-.8-3.12,3.25-3.43,3.78-.89,1.51-2.02,5.03-2.72,5.83-1.37,1.56-4.52-3.29-5.18-4.43-3.18-5.55-3.41-11.92-2.04-17.99l-2.52,4.68c-1.03,2.66-.78,5.38-1.22,8.13-.16.17-.66-.31-.8-.53-1.02-1.58-2.34-9.81-2.43-11.99-.2-5.04,1.27-9.88,2.43-14.71-4.59,4.64-6.2,11.17-8.78,16.87-.21.47-.23,1.66-1.12.75-.2-.21-1-4.86-1.07-5.62-1.02-12.15,3.94-25.78,8.53-36.86-.66-.31-1.46.95-1.81,1.39-4.63,5.67-9.2,13.95-11.8,20.8-.53.84-1.12.24-1.27-.35-2.69-10.27,8.81-31.04,15.45-38.91,1.98-2.35,7.49-6.73,8.53-9.1.29-.66-.14-1.01-.79-.79l-13.64,9.6c-.26-.27,1.57-3.25,1.9-3.7,22.43-29.98,61.77-47.45,99.37-37.38,1.86.5,11.91,3.81,12.58,4.81.07.1-1.15,3.2.56,1.56.07-.07.22-1.23.61-1.78,6.97-9.56,13.3-16.32,24.33-21.12,24.17-10.51,54,3.5,55.73,31.06-.28,1.02-4.85,3.54-6.09,4.64-4.82,4.28-8.42,11.58-6.71,18.1ZM317.73,162.54c-7.75,1.33-10.02,12.13-3.57,16.66,9.98,7,21.02-7.6,11.15-14.88-2.53-1.86-4.42-2.32-7.59-1.78ZM203.46,173.1c-7.09,1.84-17.5,6.95-20.41,14.05-1.39,3.4-2.06,6.87,2.79,6.01,1.39-.25,9.21-3.71,9.88-4.56.31-.4.32-.59.25-1.08-2.99-.42-5.66,1.23-8.55,0,1.59-5,5.94-8.11,10.09-11.01l5.95-3.4ZM213.61,186.99c-7.37,1.64-16.05,6.22-19.87,12.99-1.12,1.98-3.31,6.53-1.26,8.39.36.33,3.74,1.71,4.2,1.58.36-.1.29-.88.75-1.03,5.74-1.77,11.94-2.73,16.99-6.44.74-1.03-.96-.4-1.34-.27-5.03,1.73-10.04,3.4-15.51,2.94-.62-6.52,4.32-11.67,9.45-14.86l6.59-3.29ZM173.79,200.35l-.8.8c-.01.56,1.34-.32.8-.8ZM172.45,201.41c-5.18,2.38-10.04,7.4-11.97,12.87-.73,2.07-2.84,11.01,0,11.65,1.64.37,8.52-5.21,10.36-6.1-2.81,4.38-6.01,8.97-5.91,14.43.18,9.16,9.78-.17,13.4-1.88.15-.91-1.29-.58-1.82-.49-.98.17-5.96,1.82-6.19,1.56-.68-8.72,4.7-16.65,10.69-22.43-6.14,2.49-9.92,9.26-17.11,9.61-.19-4.56,2.13-10.05,4.59-13.85.53-.81,4.38-5,3.96-5.38ZM185.82,264.44c30.11,5.65,42.55-25.03,59.33-43-18.17,10.34-27.59,31.59-47.43,39.68l-11.91,3.32ZM183.68,232.4l-6.15,4.8c-3.05,3.17-9.35,18.13-3.5,20.07,7.19,2.37,17.2-10.75,21.95-14.99-.5-.86-1.2.2-1.65.48-2.4,1.49-15.67,10.74-17.59,8.87-.71-7.16,3.2-13.5,6.95-19.23Z"/>
              <path d="M185.82,264.44l11.91-3.32c19.84-8.09,29.26-29.34,47.43-39.68-16.78,17.97-29.22,48.65-59.33,43Z"/>
              <path d="M317.73,162.54c3.16-.55,5.06-.09,7.59,1.78,9.87,7.28-1.17,21.89-11.15,14.88-6.45-4.53-4.18-15.33,3.57-16.66ZM320.88,165.16c-2.43.47-3.12,6.7,1.96,5.16,3.4-1.03.02-5.54-1.96-5.16Z"/>
              <path d="M172.45,201.41c.41.39-3.44,4.57-3.96,5.38-2.45,3.79-4.77,9.29-4.59,13.85,7.18-.35,10.96-7.12,17.11-9.61-5.98,5.77-11.36,13.71-10.69,22.43.23.26,5.21-1.39,6.19-1.56.53-.09,1.97-.42,1.82.49-3.62,1.71-13.22,11.04-13.4,1.88-.1-5.46,3.1-10.05,5.91-14.43-1.84.89-8.72,6.47-10.36,6.1-2.84-.64-.73-9.58,0-11.65,1.93-5.48,6.79-10.49,11.97-12.87Z"/>
              <path d="M183.68,232.4c-3.75,5.73-7.66,12.07-6.95,19.23,1.92,1.87,15.19-7.38,17.59-8.87.46-.28,1.16-1.34,1.65-.48-4.75,4.23-14.76,17.36-21.95,14.99-5.84-1.93.45-16.89,3.5-20.07l6.15-4.8Z"/>
              <path d="M213.61,186.99l-6.59,3.29c-5.13,3.19-10.07,8.34-9.45,14.86,5.47.46,10.48-1.21,15.51-2.94.38-.13,2.08-.76,1.34.27-5.04,3.71-11.24,4.67-16.99,6.44-.46.14-.39.92-.75,1.03-.47.13-3.84-1.25-4.2-1.58-2.05-1.85.14-6.4,1.26-8.39,3.82-6.77,12.5-11.35,19.87-12.99Z"/>
              <path d="M203.46,173.1l-5.95,3.4c-4.15,2.9-8.5,6.02-10.09,11.01,2.89,1.24,5.56-.41,8.55,0,.07.49.06.68-.25,1.08-.67.85-8.5,4.31-9.88,4.56-4.86.87-4.19-2.61-2.79-6.01,2.91-7.1,13.33-12.21,20.41-14.05Z"/>
              <path d="M173.79,200.35c.54.48-.81,1.36-.8.8l.8-.8Z"/>
              <path d="M359.04,194.99l-19.78-5.6c.57-.65,1.7-1.14,2.53-1.22,3.05-.28,12.26,3.74,15.31,5.29.71.36,1.73.66,1.94,1.53Z"/>
              <path class="cls-44" d="M320.88,165.16c1.98-.38,5.36,4.14,1.96,5.16-5.07,1.53-4.39-4.7-1.96-5.16Z"/>
            </g>
            <g>
              <path class="cls-59" d="M207.38,240.92c-.04,2.58.73,4.98,2.33,7.19,1.62,2.25,3.63,3.64,6.03,4.15l50.2,2.98c7.77.42,15.34,1.16,22.7,2.24,2.34.51,4.13.97,5.37,1.37,1.68.56,3.04,1.24,4.08,2.02l2.87,2.49c-1.22-.45-2.02-.29-2.42.47-.41.76-.05,1.57,1.07,2.41l-.34.41c-1.32-.08-2.03.08-2.12.47-.09.41.29,1.01,1.13,1.79.66.6,1.4,1.09,2.22,1.47.25.11.5.22.76.31,1.15.39,2.26.6,3.33.64l2.02-3.46c6.8,2.15,13.11,1.21,18.94-2.84.38-1.22.34-2.22-.12-2.99l-10.5-5.71c.72-1.34,1.6-2.94,2.65-4.79,1.35-.92,2.86-1.83,4.52-2.72l8.98,5.64c.27-.14.69-.76,1.28-1.85.59-1.1.9-2.14.93-3.14-.46-2.41-1.35-4.77-2.66-7.08-1.24-2.25-2.55-3.91-3.94-4.98-1.53-1.19-3.36-1.89-5.47-2.11-2.24-.23-4.42.16-6.54,1.18-.8-.23-1.93-.23-3.38,0l-12.93,4.67c-2.02.61-3.81,1.03-5.38,1.28-1.73.27-3.49.37-5.27.31-13.67-2.07-28.69-4.61-45.08-7.62-13.25-2.42-21.06-3.75-23.43-3.99-2.57-.15-4.98.43-7.22,1.75-3.03,1.76-4.57,4.44-4.63,8.03Z"/>
              <path d="M297.93,254.27l2.55,1.72c-1.29,1.65-.96,2.83.98,3.52.62.24,1.19-.22,1.73-1.38-.54-.3-.88-.51-1.04-.64-.27-.21-.44-.43-.51-.67l1.84.81c1.89.67,3.14.49,3.76-.55l2.91-5.21c.52-1.36-.13-2.5-1.94-3.44l4.84-7.66c-1.53-.64-3.11-.1-4.75,1.64l-2.58,4.53-3.13-1.39c-1.76-.53-2.96-.27-3.62.81l-2.43,4.43c-.59,1.75-.12,2.91,1.39,3.48ZM306.63,251.45l-4.13-2.38c.38-.44,1.15-.43,2.29.03,1.35.75,1.97,1.54,1.84,2.34ZM303.58,250.72c1.35.75,1.97,1.54,1.84,2.34l-4.13-2.38c.38-.44,1.15-.43,2.29.03ZM307.8,251.55c.08-.54-.01-1.02-.28-1.44.29.26.62.29,1,.09l-.72,1.36ZM306.89,253.19c.08-.27-.04-.55-.36-.85.22.02.5-.04.86-.17l-.5,1.02ZM304.3,255.97c.56.08.99-.1,1.3-.54l-.51,1.16-.79-.61ZM305.55,253.84c.27.19.6.17.99-.05l-.67,1.17c.09-.37-.02-.75-.31-1.12ZM300.2,252.34c.38-.44,1.15-.43,2.29.03,1.35.75,1.97,1.54,1.84,2.34l-4.13-2.38ZM299.09,250.88l2.52-3.52c.43-.4.97-.35,1.6.14-1.77-.1-2.33.51-1.66,1.82-1.41.11-1.81.77-1.21,1.97-1.07.02-1.52.41-1.33,1.17.05.22.17.49.34.79-.88-.18-.96-.97-.26-2.37Z"/>
              <path d="M295.72,255.17l-1.53-.95c-.4-.47-.55-.97-.47-1.49.03-.16.08-.33.15-.51l3.66-6.07-3.05,5.96c-.36,1.26.05,2.28,1.24,3.05Z"/>
              <path d="M318.73,263.93c-1.84.82-4.43.94-7.78.36l1.12-.67c1.64.61,3.86.72,6.66.3Z"/>
              <path d="M318.2,241.07c-2.61.52-4.89,2.01-6.83,4.46l2.2-4.56c2.44-.86,4.64-1.23,6.59-1.09,2.04.16,3.67.85,4.9,2.09-2.31-1.04-4.6-1.34-6.85-.89Z"/>
              <path d="M207.38,240.92c-.04,2.58.73,4.98,2.33,7.19,1.62,2.25,3.63,3.64,6.03,4.15l50.2,2.98c7.77.42,15.34,1.16,22.7,2.24,2.34.51,4.13.97,5.37,1.37,1.68.56,3.04,1.24,4.08,2.02l2.87,2.49c-1.22-.45-2.02-.29-2.42.47-.41.76-.05,1.57,1.07,2.41l-.34.41c-1.32-.08-2.03.08-2.12.47-.09.41.29,1.01,1.13,1.79.66.6,1.4,1.09,2.22,1.47.25.11.5.22.76.31,1.15.39,2.26.6,3.33.64l2.02-3.46c6.8,2.15,13.11,1.21,18.94-2.84.38-1.22.34-2.22-.12-2.99l-10.5-5.71c.72-1.34,1.6-2.94,2.65-4.79,1.35-.92,2.86-1.83,4.52-2.72l8.98,5.64c.27-.14.69-.76,1.28-1.85.59-1.1.9-2.14.93-3.14-.46-2.41-1.35-4.77-2.66-7.08-1.24-2.25-2.55-3.91-3.94-4.98-1.53-1.19-3.36-1.89-5.47-2.11-2.24-.23-4.42.16-6.54,1.18-.8-.23-1.93-.23-3.38,0l-12.93,4.67c-2.02.61-3.81,1.03-5.38,1.28-1.73.27-3.49.37-5.27.31-13.67-2.07-28.69-4.61-45.08-7.62-13.25-2.42-21.06-3.75-23.43-3.99-2.57-.15-4.98.43-7.22,1.75-3.03,1.76-4.57,4.44-4.63,8.03ZM308.78,265.47l2.56-4.99,3.04-1.7,8.87,4.37c-3.26,2.99-8.09,3.77-14.47,2.32ZM303.49,270.06l1.36-2.8.48.42-.97,2.02c-.16.39-.45.51-.88.36ZM299.19,268.03l3.71,1.63c-.67-.02-1.29-.15-1.85-.38-.71-.26-1.32-.68-1.86-1.25ZM300.53,265.49c.57.39,1.2.75,1.9,1.07.51.23,1.05.44,1.64.63-.69-.04-1.29-.16-1.8-.35-.78-.27-1.36-.72-1.74-1.35ZM213.05,235.95c1.76-1.45,3.77-2.13,6.02-2.04l67.34,11.26c3.78.22,6.96.05,9.54-.51,5.57-1.45,10.97-3.24,16.21-5.39l1.81.16c4.8-1.42,8.64-1.09,11.51,1,2.5,2.05,4.19,4.82,5.07,8.3-.2.84-.52,1.57-.95,2.18l-7.9-4.94-6.09,3.54-8.91,15.6c-2.27-1.29-3.92-2.5-4.95-3.62-.28-.3-.52-.6-.71-.91-1.85-2-4.3-3.56-7.35-4.68-2.57-.82-5.94-1.45-10.13-1.89l-66.9-4.65-.72-.14c-1.7-.38-3.12-1.33-4.28-2.85-1.19-1.58-1.7-3.28-1.52-5.1.2-2.09,1.17-3.87,2.92-5.32Z"/>
              <path d="M218.26,237.96c-1.08-.09-2.04.21-2.86.93-.84.69-1.31,1.58-1.4,2.66-.09,1.08.21,2.05.92,2.89.69.82,1.58,1.28,2.66,1.38,1.08.09,2.05-.2,2.89-.9.83-.71,1.29-1.61,1.38-2.69.09-1.08-.21-2.04-.9-2.86-.71-.84-1.61-1.31-2.69-1.41ZM216.41,240.06c.49-.41,1.05-.59,1.68-.54.65.06,1.18.33,1.59.82.43.49.62,1.06.56,1.71-.06.65-.34,1.18-.85,1.59-.49.41-1.06.59-1.71.53-.63-.05-1.15-.33-1.57-.82-.43-.49-.62-1.06-.56-1.71.06-.65.34-1.18.85-1.59Z"/>
              <path d="M220.62,235.81l65.99,10.44c2.92.31,4.2,1.81,3.84,4.51-.11,1.05-.84,1.55-2.2,1.5l-5.82-.5,5.23-.23c1.02-.17,1.58-.49,1.69-.97.11-.48.15-.82.12-1.03-.06-.37-.64-.75-1.76-1.13l-60.15-8.18c-1.69.38-2.65,1.27-2.88,2.67-.17,1.15.24,1.89,1.23,2.23l36.85,4.72-41.02-2.16c-1.85-.05-3.12-.18-3.81-.38,1.87-.33,3.31-1.02,4.33-2.08.32-.35.55-.75.68-1.2v.03c.02-.09.05-.19.08-.29.02-.03.03-.07.04-.11.03-.09.04-.18.05-.27.12-.59.14-1.2.05-1.82-.53-2.92-2.2-4.47-5-4.64-1.58-.06-2.83.15-3.77.66.59-.97,1.5-1.59,2.73-1.87,1.06-.22,2.24-.18,3.54.12Z"/>
            </g>
            <g>
              <path class="cls-45" d="M243.29,221.87c.91,1.47-2.45,4.5-11.74,15.12-7.01,8.02-7.08,8.55-10.52,11.9-5.67,5.53-10.27,8.74-14.43,10.98,0,0-3.94,2.12-9.9,3.3-2.23.44-3.47.49-4.76,0-2.31-.87-4.14-3.18-4.53-5.83-.51-3.47,1.68-5.95,2-6.29.8-1.26,1.93-2.93,3.38-4.84.24-.32,3.2-4.18,6.37-7.29,7.43-7.29,16.63-11.07,19.27-12.13,4.25-1.7,7.59-2.44,14.28-3.91,6.58-1.45,9.88-2.15,10.59-1Z"/>
              <path d="M185.82,264.44l11.91-3.32c19.84-8.09,29.26-29.34,47.43-39.68-16.78,17.97-29.22,48.65-59.33,43Z"/>
            </g>
          </g>
          <g>
            <polygon class="cls-57" points="627.17 233.22 328.78 173.91 329.18 171.83 628.09 228.5 627.17 233.22"/>
            <g>
              <g class="cls-2">
                <path class="cls-6" d="M545.73,174.61c.48.75-21,15.4-47.97,32.73-26.97,17.33-49.23,30.77-49.71,30.02-.48-.75,21-15.4,47.97-32.73,26.97-17.33,49.23-30.77,49.71-30.02Z"/>
              </g>
              <g class="cls-35">
                <path class="cls-4" d="M553.64,169.53c4.66,7.26-16.97,29.46-48.31,49.59-31.34,20.13-60.52,30.57-65.18,23.31-4.66-7.26,16.97-29.46,48.31-49.59,31.34-20.13,60.52-30.57,65.18-23.32Z"/>
              </g>
              <g class="cls-37">
                <path class="cls-7" d="M531.51,197.41c1.07,4.33-13.56,11.68-32.68,16.41-19.12,4.73-35.49,5.05-36.56.72-1.07-4.33,13.56-11.68,32.68-16.41,19.12-4.73,35.49-5.05,36.56-.72Z"/>
              </g>
              <g class="cls-40">
                <path class="cls-5" d="M540.4,216.36c-.31,1.32-20.05-2.27-44.07-8-24.03-5.73-43.25-11.45-42.94-12.76.31-1.32,20.05,2.27,44.07,8,24.03,5.73,43.25,11.45,42.94,12.76Z"/>
              </g>
              <g class="cls-43">
                <path class="cls-11" d="M526.8,213.12c-3.92,16.42-20.48,26.54-37,22.6-16.52-3.94-26.73-20.45-22.81-36.88,3.92-16.42,20.48-26.54,37-22.6,16.52,3.94,26.73,20.45,22.81,36.88Z"/>
              </g>
              <g class="cls-47">
                <path class="cls-9" d="M525.75,237.27c-.65.6-14.1-12.92-30.03-30.2-15.93-17.28-28.32-31.78-27.67-32.38.65-.6,14.1,12.92,30.03,30.2s28.32,31.78,27.67,32.38Z"/>
              </g>
              <g class="cls-54">
                <path class="cls-10" d="M506.08,238.72c-11.7,3.29-25.3-8.71-30.37-26.79-5.07-18.09.3-35.41,12-38.7,11.7-3.29,25.3,8.71,30.37,26.79,5.07,18.09-.3,35.41-12,38.7Z"/>
              </g>
              <g class="cls-48">
                <path class="cls-8" d="M504.7,250.61c-.95.17-5.22-19.68-9.53-44.33-4.31-24.65-7.03-44.77-6.08-44.93s5.22,19.68,9.53,44.33c4.31,24.65,7.03,44.77,6.08,44.93Z"/>
              </g>
              <g class="cls-51">
                <path class="cls-12" d="M487.08,226.21c-.87-.42,2.81-9.82,8.23-20.99,5.42-11.17,10.51-19.89,11.39-19.46s-2.81,9.82-8.23,20.99c-5.42,11.17-10.51,19.89-11.39,19.46Z"/>
              </g>
              <g class="cls-49">
                <path class="cls-13" d="M512.69,209.03c-1.69,8.73-10.13,14.44-18.85,12.75-8.73-1.69-14.43-10.13-12.74-18.86,1.69-8.73,10.13-14.44,18.85-12.75s14.43,10.13,12.75,18.86Z"/>
              </g>
            </g>
          </g>
        </g>
        <g>
          <path class="cls-44" d="M159.14,381.86v67.92h-24.26v-67.92h24.26ZM161.57,392.78l7.28-10.92h29.11l-26.68,33.96,26.68,33.96h-29.11l-7.28-10.92v-46.09Z"/>
          <path class="cls-44" d="M227.06,381.86v67.92h-24.26v-67.92h24.26Z"/>
          <path class="cls-44" d="M264.62,415.53l-8.44,34.25h-4.85l-19.41-67.92h24.26l8.44,33.67ZM287.71,424.31l-7.28,25.47h-21.78l16.93-67.92h24.26l8.44,33.67-8.44,34.25h-4.85l-7.28-25.47ZM302.31,449.78l16.93-67.92h24.26l-19.41,67.92h-21.78Z"/>
          <path class="cls-44" d="M372.61,381.86v67.92h-24.26v-67.92h24.26Z"/>
        </g>
        <g>
          <path class="cls-44" d="M81.8,131.43l-11.07-9.42,23.54-27.67,11.07,9.42-23.54,27.67ZM100.84,111.86l26.29,22.36-11.77,13.84-26.29-22.36,11.77-13.84Z"/>
          <path class="cls-44" d="M115.76,76.1l32.81,38.87-13.88,11.72-32.81-38.87,13.88-11.72Z"/>
          <path class="cls-44" d="M156.11,88.88l8.72,15.35-15.8,8.97-25.12-44.23,1.45-.83,30.74,20.73ZM127.14,67.15l9.41-5.35,20.24,13.57-10.77-18.96,15.8-8.97,25.12,44.23-12.64,7.18-47.17-31.7Z"/>
          <path class="cls-44" d="M192.3,37.44l12.68,49.26-17.59,4.53-12.68-49.26,17.59-4.53ZM196.1,44.91l3.24-9.28,21.11-5.44-13.01,29.61,25.69,19.65-21.11,5.44-7.32-6.56-8.61-33.43Z"/>
          <path class="cls-44" d="M252.1,79.87l-18.16.29-.82-50.86,18.16-.29.82,50.86ZM253.09,28.98l16.35-.27.24,14.53-16.35.26-.24-14.53ZM253.38,47.14l16.35-.27.24,14.53-16.35.26-.24-14.53ZM253.68,65.31l16.35-.27.24,14.53-16.35.26-.24-14.53Z"/>
          <path class="cls-44" d="M288.95,83.39l-17.71-4.03,11.29-49.6,17.71,4.03-11.29,49.6ZM298.78,48.36l3.22-14.17,8.86,2.02c9.45,2.15,13.09,7.95,10.95,17.4l-.81,3.54c-1.59,6.99-5.19,10.8-10.8,11.44l3.54,20.44-17.71-4.03-2.29-14.49,4.23-18.6,5.31,1.21.81-3.54-5.31-1.21Z"/>
          <path class="cls-44" d="M351.61,51.17l-20.28,46.65-16.66-7.24,20.28-46.65,16.66,7.24Z"/>
          <path class="cls-44" d="M358.06,93.03l-9.9,14.62-15.04-10.19,28.53-42.11,1.38.94-4.97,36.74ZM364.71,57.43l8.96,6.07-3.2,24.16,12.23-18.05,15.04,10.19-28.53,42.11-12.03-8.15,7.53-56.33Z"/>
          <path class="cls-44" d="M410.77,113.97l-1.8-2.04-16.34,14.43,1.8,2.04-10.89,9.62-4.21-4.77c-6.41-7.26-5.99-14.1,1.27-20.51l16.34-14.43c7.26-6.41,14.1-5.99,20.51,1.27l4.21,4.77-10.89,9.62ZM409.25,117.74l13.83,15.66-24.51,21.64-13.83-15.66,10.89-9.62,1.8,2.04,2.72-2.4-1.8-2.04,10.89-9.62ZM422.87,105.71l13.83,15.66-10.89,9.62-13.83-15.66,10.89-9.62Z"/>
        </g>
      </g>
    </g>
  </g>
</svg>